<svg width="215" height="58" viewBox="0 0 215 58" fill="none" xmlns="http://www.w3.org/2000/svg">
<path d="M27.6188 15.6983C19.5481 15.6983 15.5127 20.7438 13.8739 28.2449V14.0594C13.8739 6.42931 7.69457 0.250015 0 0.250015V43.3761C0 51.0707 6.24378 57.25 13.8739 57.25V34.1717C14.379 26.0365 17.2161 19.5455 22.3207 19.5455C25.5984 19.5455 27.1137 21.8131 27.1137 26.6061V43.3761C27.1137 51.0062 33.3575 57.25 40.9875 57.25V30.1363C40.9875 21.4369 36.2537 15.6983 27.6188 15.6983Z" fill="#C3833D"/>
<path d="M86.3182 41.9898H85.5605C84.6793 51.1943 79.0642 54.9825 72.6968 54.9825C64.6261 54.9825 59.8976 50.125 59.8976 36.192H85.7486C86.1301 21.0555 77.1137 14.8762 66.6465 14.8762C54.0354 14.8762 45.207 23.3284 45.207 35.9986C45.207 48.7387 54.7285 57.25 68.597 57.25C77.9949 57.25 85.3725 52.586 86.3182 41.9898ZM66.582 15.6983C72.7613 15.6983 72.3207 28.6211 72.3207 35.4344H59.8976C59.9621 22.6943 61.8535 15.6983 66.582 15.6983Z" fill="#C3833D"/>
<path d="M125.913 15.6983L117.02 35.3055C116.456 36.6327 115.193 37.2613 113.93 37.2613C112.667 37.2613 111.41 36.6327 110.776 35.3055L107.434 28.0569C103.968 20.5504 96.4024 15.6983 88.0792 15.6983H87.386L108.003 57.25H108.068L126.923 15.6983H125.913Z" fill="#C3833D"/>
<path d="M168.912 41.9898H168.154C167.273 51.1943 161.658 54.9825 155.29 54.9825C147.22 54.9825 142.491 50.125 142.491 36.192H168.342C168.724 21.0555 159.707 14.8762 149.24 14.8762C136.629 14.8762 127.801 23.3284 127.801 35.9986C127.801 48.7387 137.322 57.25 151.191 57.25C160.589 57.25 167.966 52.586 168.912 41.9898ZM149.176 15.6983C155.355 15.6983 154.914 28.6211 154.914 35.4344H142.491C142.556 22.6943 144.447 15.6983 149.176 15.6983Z" fill="#C3833D"/>
<path d="M195.83 19.5456C199.108 19.5456 200.623 21.8131 200.623 26.6061V45.5201C200.623 52.0164 205.921 57.25 212.353 57.25H214.497V30.1363C214.497 21.437 209.763 15.6983 201.128 15.6983C193.058 15.6983 189.022 20.7438 187.384 28.2449C187.384 21.7486 182.15 16.515 175.654 16.515H173.51V45.5201C173.51 52.0164 178.808 57.25 185.24 57.25H187.384V34.1717C187.889 26.0365 190.726 19.5456 195.83 19.5456Z" fill="#C3833D"/>
</svg>
