<svg width="212" height="56" viewBox="0 0 212 56" fill="none" xmlns="http://www.w3.org/2000/svg">
<path d="M27.2972 15.1772C19.3205 15.1772 15.3321 20.1342 13.7123 27.5038V13.5671C13.7123 6.07089 7.60499 0 0 0V42.3695C0 49.9291 6.17109 56 13.7123 56V33.3265C14.2116 25.3341 17.0156 18.957 22.0608 18.957C25.3004 18.957 26.798 21.1848 26.798 25.8937V42.3695C26.798 49.8658 32.9691 56 40.5104 56V29.362C40.5104 20.8152 35.8316 15.1772 27.2972 15.1772Z" fill="white"/>
<path d="M85.3132 41.0075H84.5644C83.6935 50.0505 78.1437 53.7723 71.8505 53.7723C63.8738 53.7723 59.2003 49 59.2003 35.3115H84.7503C85.1273 20.4404 76.2159 14.3695 65.8706 14.3695C53.4063 14.3695 44.6807 22.6735 44.6807 35.1214C44.6807 47.638 54.0914 56 67.7984 56C77.0869 56 84.3785 51.4178 85.3132 41.0075ZM65.8069 15.1772C71.9142 15.1772 71.4787 27.8733 71.4787 34.5671H59.2003C59.264 22.0505 61.1334 15.1772 65.8069 15.1772Z" fill="white"/>
<path d="M124.447 15.1772L115.657 34.4404C115.1 35.7444 113.852 36.362 112.604 36.362C111.356 36.362 110.113 35.7444 109.486 34.4404L106.183 27.319C102.758 19.9442 95.2801 15.1772 87.0537 15.1772H86.3687L106.746 56H106.81L125.445 15.1772H124.447Z" fill="white"/>
<path d="M166.945 41.0075H166.196C165.326 50.0505 159.776 53.7723 153.483 53.7723C145.506 53.7723 140.832 49 140.832 35.3115H166.382C166.759 20.4404 157.848 14.3695 147.503 14.3695C135.038 14.3695 126.313 22.6735 126.313 35.1214C126.313 47.638 135.723 56 149.43 56C158.719 56 166.011 51.4178 166.945 41.0075ZM147.439 15.1772C153.546 15.1772 153.111 27.8733 153.111 34.5671H140.832C140.896 22.0505 142.765 15.1772 147.439 15.1772Z" fill="white"/>
<path d="M193.55 18.957C196.79 18.957 198.288 21.1848 198.288 25.8937V44.4759C198.288 50.8582 203.524 56 209.881 56H212V29.362C212 20.8152 207.321 15.1772 198.787 15.1772C190.81 15.1772 186.822 20.1342 185.202 27.5038C185.202 21.1214 180.029 15.9796 173.609 15.9796H171.49V44.4759C171.49 50.8582 176.726 56 183.083 56H185.202V33.3266C185.701 25.3341 188.505 18.957 193.55 18.957Z" fill="white"/>
</svg>
