<svg width="32" height="32" viewBox="0 0 32 32" fill="none" xmlns="http://www.w3.org/2000/svg">
<path fill-rule="evenodd" clip-rule="evenodd" d="M2.66675 16.0001C2.66675 8.63608 8.63608 2.66675 16.0001 2.66675C23.3641 2.66675 29.3334 8.63608 29.3334 16.0001C29.3334 23.3641 23.3641 29.3334 16.0001 29.3334C8.63608 29.3334 2.66675 23.3641 2.66675 16.0001ZM16.0001 5.33341C13.1711 5.33341 10.458 6.45722 8.45761 8.45761C6.45722 10.458 5.33341 13.1711 5.33341 16.0001C5.33341 18.8291 6.45722 21.5422 8.45761 23.5426C10.458 25.5429 13.1711 26.6667 16.0001 26.6667C18.8291 26.6667 21.5422 25.5429 23.5426 23.5426C25.5429 21.5422 26.6667 18.8291 26.6667 16.0001C26.6667 13.1711 25.5429 10.458 23.5426 8.45761C21.5422 6.45722 18.8291 5.33341 16.0001 5.33341Z" fill="#949494"/>
<path fill-rule="evenodd" clip-rule="evenodd" d="M17.3333 9.33333C17.3333 8.97971 17.1929 8.64057 16.9428 8.39052C16.6928 8.14048 16.3536 8 16 8C15.6464 8 15.3072 8.14048 15.0572 8.39052C14.8071 8.64057 14.6667 8.97971 14.6667 9.33333V14.6667H9.33333C8.97971 14.6667 8.64057 14.8071 8.39052 15.0572C8.14048 15.3072 8 15.6464 8 16C8 16.3536 8.14048 16.6928 8.39052 16.9428C8.64057 17.1929 8.97971 17.3333 9.33333 17.3333H14.6667V22.6667C14.6667 23.0203 14.8071 23.3594 15.0572 23.6095C15.3072 23.8595 15.6464 24 16 24C16.3536 24 16.6928 23.8595 16.9428 23.6095C17.1929 23.3594 17.3333 23.0203 17.3333 22.6667V17.3333H22.6667C23.0203 17.3333 23.3594 17.1929 23.6095 16.9428C23.8595 16.6928 24 16.3536 24 16C24 15.6464 23.8595 15.3072 23.6095 15.0572C23.3594 14.8071 23.0203 14.6667 22.6667 14.6667H17.3333V9.33333Z" fill="#949494"/>
</svg>
