<svg width="32" height="32" viewBox="0 0 32 32" fill="none" xmlns="http://www.w3.org/2000/svg">
<path fill-rule="evenodd" clip-rule="evenodd" d="M5 16H27V22C27 22.7956 26.6839 23.5587 26.1213 24.1213C25.5587 24.6839 24.7956 25 24 25H8C7.20435 25 6.44129 24.6839 5.87868 24.1213C5.31607 23.5587 5 22.7956 5 22V16ZM26.394 13L22.692 7.446C22.6008 7.3089 22.4771 7.19645 22.3319 7.11865C22.1868 7.04084 22.0247 7.00009 21.86 7H10.14C9.97532 7.00009 9.8132 7.04084 9.66806 7.11865C9.52292 7.19645 9.39923 7.3089 9.308 7.446L5.606 13H26.394ZM30 14.816V22C30 23.5913 29.3679 25.1174 28.2426 26.2426C27.1174 27.3679 25.5913 28 24 28H8C6.4087 28 4.88258 27.3679 3.75736 26.2426C2.63214 25.1174 2 23.5913 2 22V14.816C2.00013 13.6315 2.35086 12.4735 3.008 11.488L6.812 5.782C7.17717 5.23397 7.67199 4.78457 8.25255 4.4737C8.83312 4.16284 9.48145 4.00012 10.14 4H21.86C22.5184 3.9999 23.1666 4.16231 23.7471 4.47282C24.3277 4.78333 24.8226 5.23234 25.188 5.78L28.992 11.488C29.6491 12.4735 29.9999 13.6315 30 14.816ZM18.5 22C18.8978 22 19.2794 21.842 19.5607 21.5607C19.842 21.2794 20 20.8978 20 20.5C20 20.1022 19.842 19.7206 19.5607 19.4393C19.2794 19.158 18.8978 19 18.5 19H13.5C13.1022 19 12.7206 19.158 12.4393 19.4393C12.158 19.7206 12 20.1022 12 20.5C12 20.8978 12.158 21.2794 12.4393 21.5607C12.7206 21.842 13.1022 22 13.5 22H18.5Z" fill="#949494"/>
</svg>
