<svg width="32" height="32" viewBox="0 0 32 32" fill="none" xmlns="http://www.w3.org/2000/svg">
<path d="M8.82132 28C8.2071 28 7.69466 27.7947 7.28399 27.384C6.87332 26.9733 6.66755 26.4609 6.66666 25.8467V11.4867C6.66666 10.8733 6.87243 10.3613 7.28399 9.95067C7.69555 9.54 8.20799 9.33422 8.82132 9.33333H11.3333V8.66667C11.3333 7.37067 11.7871 6.26889 12.6947 5.36133C13.6022 4.45378 14.704 4 16 4C17.296 4 18.3978 4.45378 19.3053 5.36133C20.2129 6.26889 20.6667 7.37067 20.6667 8.66667V9.33333H23.18C23.7933 9.33333 24.3053 9.53911 24.716 9.95067C25.1267 10.3622 25.3324 10.8747 25.3333 11.488V25.8467C25.3333 26.46 25.1275 26.9724 24.716 27.384C24.3044 27.7956 23.7924 28.0009 23.18 28H8.82132ZM12.6667 9.33333H19.3333V8.66667C19.3333 7.728 19.0124 6.93778 18.3707 6.296C17.7289 5.65422 16.9387 5.33333 16 5.33333C15.0613 5.33333 14.2711 5.65422 13.6293 6.296C12.9875 6.93778 12.6667 7.728 12.6667 8.66667V9.33333ZM20 14.6667C20.1902 14.6667 20.3489 14.6031 20.476 14.476C20.6031 14.3489 20.6667 14.1902 20.6667 14V10.6667H19.3333V14C19.3333 14.1902 19.3969 14.3489 19.524 14.476C19.6511 14.6031 19.8098 14.6667 20 14.6667ZM12 14.6667C12.1902 14.6667 12.3489 14.6031 12.476 14.476C12.6031 14.3489 12.6667 14.1902 12.6667 14V10.6667H11.3333V14C11.3333 14.1902 11.3969 14.3489 11.524 14.476C11.6511 14.6031 11.8098 14.6667 12 14.6667Z" fill="black"/>
</svg>
