<svg width="32" height="32" viewBox="0 0 32 32" fill="none" xmlns="http://www.w3.org/2000/svg">
<path fill-rule="evenodd" clip-rule="evenodd" d="M6.5 7C5.11929 7 4 8.11929 4 9.5V22.5C4 23.8807 5.11929 25 6.5 25H25.5C26.8807 25 28 23.8807 28 22.5V9.5C28 8.11929 26.8807 7 25.5 7H6.5ZM2 9.5C2 7.01472 4.01472 5 6.5 5H25.5C27.9853 5 30 7.01472 30 9.5V22.5C30 24.9853 27.9853 27 25.5 27H6.5C4.01472 27 2 24.9853 2 22.5V9.5Z" fill="#949494"/>
<path fill-rule="evenodd" clip-rule="evenodd" d="M29 12.9375H3V11.0625H29V12.9375ZM7.0625 18.75C7.0625 18.2322 7.48223 17.8125 8 17.8125H11C11.5178 17.8125 11.9375 18.2322 11.9375 18.75V20C11.9375 20.5178 11.5178 20.9375 11 20.9375H8C7.48223 20.9375 7.0625 20.5178 7.0625 20V18.75Z" fill="#949494"/>
</svg>
