<svg width="32" height="32" viewBox="0 0 32 32" fill="none" xmlns="http://www.w3.org/2000/svg">
<path d="M22.8667 12.8L13.3333 22.3333L9.06667 18.0667L10 17.12L13.3333 20.4533L21.92 11.8533L22.8667 12.8ZM15.3333 4C22.3333 4 28 9.66667 28 16.6667C28 23.6667 22.3333 29.3333 15.3333 29.3333C8.33334 29.3333 2.66667 23.6667 2.66667 16.6667C2.66667 9.66667 8.33334 4 15.3333 4ZM15.3333 5.33333C9.08001 5.33333 4.00001 10.4133 4.00001 16.6667C4.00001 22.92 9.08001 28 15.3333 28C21.5867 28 26.6667 22.92 26.6667 16.6667C26.6667 10.4133 21.5867 5.33333 15.3333 5.33333Z" fill="black"/>
</svg>
