<svg width="32" height="32" viewBox="0 0 32 32" fill="none" xmlns="http://www.w3.org/2000/svg">
<path d="M14.1334 22.1334L23.5334 12.7334L21.6667 10.8667L14.1334 18.4001L10.3334 14.6001L8.46675 16.4667L14.1334 22.1334ZM16.0001 29.3334C14.1556 29.3334 12.4223 28.9832 10.8001 28.2827C9.17786 27.5823 7.76675 26.6325 6.56675 25.4334C5.36675 24.2343 4.41697 22.8232 3.71742 21.2001C3.01786 19.577 2.66764 17.8436 2.66675 16.0001C2.66586 14.1565 3.01608 12.4232 3.71742 10.8001C4.41875 9.17697 5.36853 7.76586 6.56675 6.56675C7.76497 5.36764 9.17608 4.41786 10.8001 3.71741C12.4241 3.01697 14.1574 2.66675 16.0001 2.66675C17.8427 2.66675 19.5761 3.01697 21.2001 3.71741C22.8241 4.41786 24.2352 5.36764 25.4334 6.56675C26.6316 7.76586 27.5819 9.17697 28.2841 10.8001C28.9863 12.4232 29.3361 14.1565 29.3334 16.0001C29.3308 17.8436 28.9805 19.577 28.2828 21.2001C27.585 22.8232 26.6352 24.2343 25.4334 25.4334C24.2316 26.6325 22.8205 27.5827 21.2001 28.2841C19.5796 28.9854 17.8463 29.3352 16.0001 29.3334Z" fill="#949494"/>
</svg>
