<svg width="32" height="32" viewBox="0 0 32 32" fill="none" xmlns="http://www.w3.org/2000/svg">
<path d="M11.4801 6.39994C11.3356 6.53388 11.2189 6.69497 11.1367 6.874C11.0545 7.05304 11.0084 7.24651 11.0009 7.44337C10.9935 7.64024 11.0249 7.83664 11.0934 8.02136C11.1619 8.20608 11.2661 8.3755 11.4001 8.51994L18.4541 15.9999L11.4001 23.4799C11.2661 23.6244 11.1619 23.7938 11.0935 23.9785C11.025 24.1633 10.9936 24.3597 11.001 24.5565C11.0084 24.7534 11.0546 24.9468 11.1368 25.1259C11.219 25.3049 11.3356 25.466 11.4801 25.5999C11.6245 25.7339 11.7939 25.8381 11.9787 25.9065C12.1634 25.975 12.3598 26.0064 12.5566 25.999C12.7535 25.9916 12.947 25.9455 13.126 25.8633C13.305 25.7811 13.4661 25.6644 13.6001 25.5199L21.6001 17.0199C21.8573 16.7426 22.0002 16.3782 22.0002 15.9999C22.0002 15.6216 21.8573 15.2573 21.6001 14.9799L13.6001 6.47994C13.4661 6.33547 13.305 6.2188 13.126 6.1366C12.947 6.05439 12.7535 6.00825 12.5566 6.00082C12.3598 5.99339 12.1634 6.02482 11.9786 6.0933C11.7939 6.16178 11.6245 6.26598 11.4801 6.39994Z" fill="#949494"/>
</svg>
