<svg width="32" height="32" viewBox="0 0 32 32" fill="none" xmlns="http://www.w3.org/2000/svg">
<path d="M20.5199 6.39994C20.6644 6.53388 20.7811 6.69497 20.8633 6.874C20.9455 7.05304 20.9916 7.24651 20.9991 7.44337C21.0065 7.64024 20.9751 7.83664 20.9066 8.02136C20.8381 8.20608 20.7339 8.3755 20.5999 8.51994L13.5459 15.9999L20.5999 23.4799C20.7339 23.6244 20.8381 23.7938 20.9065 23.9785C20.975 24.1633 21.0064 24.3597 20.999 24.5565C20.9916 24.7534 20.9454 24.9468 20.8632 25.1259C20.781 25.3049 20.6644 25.466 20.5199 25.5999C20.3755 25.7339 20.2061 25.8381 20.0213 25.9065C19.8366 25.975 19.6402 26.0064 19.4434 25.999C19.2465 25.9916 19.053 25.9455 18.874 25.8633C18.695 25.7811 18.5339 25.6644 18.3999 25.5199L10.3999 17.0199C10.1427 16.7426 9.99976 16.3782 9.99976 15.9999C9.99976 15.6216 10.1427 15.2573 10.3999 14.9799L18.3999 6.47994C18.5339 6.33547 18.695 6.2188 18.874 6.1366C19.053 6.05439 19.2465 6.00825 19.4434 6.00082C19.6402 5.99339 19.8366 6.02482 20.0214 6.0933C20.2061 6.16178 20.3755 6.26598 20.5199 6.39994Z" fill="#949494"/>
</svg>
