<svg width="32" height="32" viewBox="0 0 32 32" fill="none" xmlns="http://www.w3.org/2000/svg">
<path fill-rule="evenodd" clip-rule="evenodd" d="M30 16C30 12.287 28.525 8.72601 25.8995 6.1005C23.274 3.475 19.713 2 16 2C12.287 2 8.72601 3.475 6.1005 6.1005C3.475 8.72601 2 12.287 2 16C2 19.713 3.475 23.274 6.1005 25.8995C8.72601 28.525 12.287 30 16 30C19.713 30 23.274 28.525 25.8995 25.8995C28.525 23.274 30 19.713 30 16ZM18.56 12.06C18.825 11.7757 18.9692 11.3996 18.9624 11.011C18.9555 10.6224 18.7981 10.2516 18.5232 9.97676C18.2484 9.70193 17.8776 9.54451 17.489 9.53765C17.1004 9.53079 16.7244 9.67504 16.44 9.94L11.44 14.94C11.1591 15.2213 11.0013 15.6025 11.0013 16C11.0013 16.3975 11.1591 16.7787 11.44 17.06L16.44 22.06C16.5773 22.2074 16.7429 22.3256 16.9269 22.4076C17.1109 22.4895 17.3096 22.5336 17.511 22.5372C17.7124 22.5407 17.9124 22.5037 18.0992 22.4282C18.286 22.3528 18.4556 22.2405 18.5981 22.0981C18.7405 21.9556 18.8528 21.786 18.9282 21.5992C19.0037 21.4124 19.0407 21.2124 19.0372 21.011C19.0336 20.8096 18.9895 20.6109 18.9076 20.4269C18.8256 20.2429 18.7074 20.0773 18.56 19.94L14.62 16L18.56 12.06Z" fill="#949494"/>
</svg>
