<svg width="32" height="32" viewBox="0 0 32 32" fill="none" xmlns="http://www.w3.org/2000/svg">
<path d="M16.0001 26.6667C10.1201 26.6667 5.33341 21.8801 5.33341 16.0001C5.33341 10.1201 10.1201 5.33341 16.0001 5.33341C21.8801 5.33341 26.6667 10.1201 26.6667 16.0001C26.6667 21.8801 21.8801 26.6667 16.0001 26.6667ZM16.0001 2.66675C8.62675 2.66675 2.66675 8.62675 2.66675 16.0001C2.66675 23.3734 8.62675 29.3334 16.0001 29.3334C23.3734 29.3334 29.3334 23.3734 29.3334 16.0001C29.3334 8.62675 23.3734 2.66675 16.0001 2.66675ZM19.4534 10.6667L16.0001 14.1201L12.5467 10.6667L10.6667 12.5467L14.1201 16.0001L10.6667 19.4534L12.5467 21.3334L16.0001 17.8801L19.4534 21.3334L21.3334 19.4534L17.8801 16.0001L21.3334 12.5467L19.4534 10.6667Z" fill="#949494"/>
</svg>
