<svg width="32" height="32" viewBox="0 0 32 32" fill="none" xmlns="http://www.w3.org/2000/svg">
<path d="M8.66671 26.6668C6.64449 26.6668 4.91693 25.9668 3.48404 24.5668C2.05115 23.1668 1.33426 21.4557 1.33337 19.4335C1.33337 17.7002 1.8556 16.1557 2.90004 14.8002C3.94449 13.4446 5.31115 12.5779 7.00004 12.2002C7.5556 10.1557 8.66671 8.50016 10.3334 7.2335C12 5.96683 13.8889 5.3335 16 5.3335C18.6 5.3335 20.8058 6.23927 22.6174 8.05083C24.4289 9.86239 25.3343 12.0677 25.3334 14.6668C26.8667 14.8446 28.1392 15.5059 29.1507 16.6508C30.1623 17.7957 30.6676 19.1344 30.6667 20.6668C30.6667 22.3335 30.0836 23.7504 28.9174 24.9175C27.7512 26.0846 26.3343 26.6677 24.6667 26.6668H8.66671ZM8.66671 24.0002H24.6667C25.6 24.0002 26.3889 23.6779 27.0334 23.0335C27.6778 22.3891 28 21.6002 28 20.6668C28 19.7335 27.6778 18.9446 27.0334 18.3002C26.3889 17.6557 25.6 17.3335 24.6667 17.3335H22.6667V14.6668C22.6667 12.8224 22.0165 11.2499 20.716 9.9495C19.4156 8.64905 17.8436 7.99927 16 8.00016C14.1565 8.00105 12.5845 8.65127 11.284 9.95083C9.9836 11.2504 9.33337 12.8224 9.33337 14.6668H8.66671C7.37782 14.6668 6.27782 15.1224 5.36671 16.0335C4.4556 16.9446 4.00004 18.0446 4.00004 19.3335C4.00004 20.6224 4.4556 21.7224 5.36671 22.6335C6.27782 23.5446 7.37782 24.0002 8.66671 24.0002Z" fill="#949494"/>
</svg>
