<svg width="32" height="32" viewBox="0 0 32 32" fill="none" xmlns="http://www.w3.org/2000/svg">
<path d="M22.3867 30.6668C21.8267 30.4401 21.4267 29.9334 21.3333 29.3334C21.2667 28.9868 21.3333 28.7468 21.8667 27.7868C23.8667 24.1868 24.8933 20.1201 24.84 16.0001C24.8933 12.0001 23.92 8.09343 22 4.58677C21.72 4.0001 21.4667 3.4401 21.2533 2.8401C21.3333 2.33343 21.5867 1.86677 22 1.58677C22.6 1.26677 23.3333 1.33343 23.88 1.70677C24.2533 2.18677 24.5733 2.66677 24.84 3.22677C26.2746 5.97463 27.2518 8.93791 27.7333 12.0001C28.04 14.4134 28.08 16.8668 27.8533 19.2934C27.44 22.4134 26.52 25.4268 25.1067 28.2401C24.2533 29.9468 23.7733 30.6668 23.2667 30.6668H22.3867ZM16.5733 27.7201C15.8133 27.5068 15.3333 26.7334 15.4933 25.9601C15.4933 25.8001 15.9067 25.0668 16.28 24.3201C17.8533 21.2934 18.5333 17.8801 18.2267 14.4801C18.04 12.0401 17.3333 9.66677 16.1733 7.5201C15.3333 5.8401 15.28 5.57343 15.7733 4.85343C16.36 4.2001 17.3333 4.10677 18.0533 4.66677C19.0133 6.0801 19.7733 7.62677 20.3333 9.25343C22.04 14.3068 21.7733 19.8134 19.5867 24.6668C18.4667 27.1868 17.68 28.0001 16.5733 27.6534V27.7201ZM10.5733 24.7468C10.3359 24.6402 10.1253 24.482 9.95691 24.2836C9.78851 24.0852 9.66657 23.8517 9.59999 23.6001C9.59999 23.3334 9.59999 22.9868 10.2 21.9201C11.1769 20.1479 11.6893 18.1571 11.6893 16.1334C11.6893 14.1098 11.1769 12.119 10.2 10.3468C9.33333 8.66677 9.33333 8.3201 10.04 7.6801C10.2933 7.38677 10.6667 7.2401 11.0667 7.29343C11.92 7.29343 12.4 7.70677 13.12 9.21343C14.2542 11.2947 14.8415 13.6299 14.8267 16.0001C14.88 18.4134 14.2933 20.8134 13.1333 22.9334C12.4133 24.3334 12.0533 24.6668 11.3333 24.7868C11.08 24.8134 10.8133 24.7868 10.5733 24.6668V24.7468ZM4.95999 21.9068C4.51999 21.6934 4.17333 21.3334 3.99999 20.8668C3.86666 20.4001 4 20.0001 4.53333 19.1468C5.19999 18.2401 5.52 17.1201 5.45333 16.0001C5.54666 14.8668 5.23999 13.7468 4.58666 12.8134C4.36489 12.4776 4.16878 12.1255 3.99999 11.7601C3.85333 10.9201 4.41333 10.1201 5.33333 9.9601C6.05333 9.82677 6.55999 10.1334 7.22666 11.1468C8.17242 12.5863 8.67635 14.271 8.67635 15.9934C8.67635 17.7158 8.17242 19.4006 7.22666 20.8401C6.54666 21.8668 5.77333 22.1734 4.97333 21.9068H4.95999Z" fill="#757575"/>
</svg>
