<svg width="32" height="32" viewBox="0 0 32 32" fill="none" xmlns="http://www.w3.org/2000/svg">
<path d="M6.66667 6.66675H24C25.0609 6.66675 26.0783 7.08818 26.8284 7.83832C27.5786 8.58847 28 9.60588 28 10.6667V22.6667C28 23.7276 27.5786 24.745 26.8284 25.4952C26.0783 26.2453 25.0609 26.6667 24 26.6667H6.66667C5.60581 26.6667 4.58839 26.2453 3.83824 25.4952C3.0881 24.745 2.66667 23.7276 2.66667 22.6667V10.6667C2.66667 9.60588 3.0881 8.58847 3.83824 7.83832C4.58839 7.08818 5.60581 6.66675 6.66667 6.66675ZM6.66667 8.00008C5.95943 8.00008 5.28115 8.28103 4.78105 8.78113C4.28096 9.28123 4.00001 9.9595 4.00001 10.6667V12.0001H26.6667V10.6667C26.6667 9.9595 26.3857 9.28123 25.8856 8.78113C25.3855 8.28103 24.7073 8.00008 24 8.00008H6.66667ZM4.00001 22.6667C4.00001 23.374 4.28096 24.0523 4.78105 24.5524C5.28115 25.0525 5.95943 25.3334 6.66667 25.3334H24C24.7073 25.3334 25.3855 25.0525 25.8856 24.5524C26.3857 24.0523 26.6667 23.374 26.6667 22.6667V16.0001H4.00001V22.6667ZM6.66667 21.3334H12V22.6667H6.66667V21.3334ZM14.6667 21.3334H18.6667V22.6667H14.6667V21.3334ZM4.00001 13.3334V14.6667H26.6667V13.3334H4.00001Z" fill="black"/>
</svg>
