<svg width="16" height="16" viewBox="0 0 16 16" fill="none" xmlns="http://www.w3.org/2000/svg">
<path fill-rule="evenodd" clip-rule="evenodd" d="M5.16668 5.00008C5.16668 4.628 5.23996 4.25957 5.38235 3.91581C5.52474 3.57206 5.73344 3.25971 5.99654 2.99661C6.25964 2.73351 6.57198 2.52481 6.91574 2.38242C7.2595 2.24003 7.62793 2.16675 8.00001 2.16675C8.37209 2.16675 8.74052 2.24003 9.08428 2.38242C9.42804 2.52481 9.74038 2.73351 10.0035 2.99661C10.2666 3.25971 10.4753 3.57206 10.6177 3.91581C10.7601 4.25957 10.8333 4.628 10.8333 5.00008C10.8333 5.75153 10.5348 6.4722 10.0035 7.00355C9.47213 7.5349 8.75146 7.83342 8.00001 7.83342C7.24856 7.83342 6.52789 7.5349 5.99654 7.00355C5.46519 6.4722 5.16668 5.75153 5.16668 5.00008ZM8.00001 3.16675C7.51378 3.16675 7.04746 3.3599 6.70365 3.70372C6.35983 4.04754 6.16668 4.51385 6.16668 5.00008C6.16668 5.48631 6.35983 5.95263 6.70365 6.29644C7.04746 6.64026 7.51378 6.83342 8.00001 6.83342C8.48624 6.83342 8.95256 6.64026 9.29637 6.29644C9.64019 5.95263 9.83334 5.48631 9.83334 5.00008C9.83334 4.51385 9.64019 4.04754 9.29637 3.70372C8.95256 3.3599 8.48624 3.16675 8.00001 3.16675ZM5.33334 9.83342C4.93552 9.83342 4.55399 9.99145 4.27268 10.2728C3.99138 10.5541 3.83334 10.9356 3.83334 11.3334V12.1254C3.83334 12.1374 3.84201 12.1481 3.85401 12.1501C6.60001 12.5981 9.40068 12.5981 12.146 12.1501C12.1518 12.1491 12.1571 12.1461 12.1609 12.1416C12.1647 12.1371 12.1668 12.1313 12.1667 12.1254V11.3334C12.1667 10.9356 12.0086 10.5541 11.7273 10.2728C11.446 9.99145 11.0645 9.83342 10.6667 9.83342H10.44C10.4221 9.83328 10.4044 9.83598 10.3873 9.84141L9.81068 10.0301C8.63412 10.4142 7.3659 10.4142 6.18934 10.0301L5.61201 9.84141C5.59542 9.8361 5.5781 9.8334 5.56068 9.83342H5.33334ZM2.83334 11.3334C2.83334 10.6704 3.09674 10.0345 3.56558 9.56565C4.03442 9.09681 4.6703 8.83342 5.33334 8.83342H5.56001C5.68334 8.83342 5.80601 8.85342 5.92268 8.89075L6.50001 9.07942C7.4747 9.39757 8.52532 9.39757 9.50001 9.07942L10.0773 8.89075C10.194 8.85275 10.3167 8.83342 10.4393 8.83342H10.6667C11.3297 8.83342 11.9656 9.09681 12.4344 9.56565C12.9033 10.0345 13.1667 10.6704 13.1667 11.3334V12.1254C13.1667 12.6281 12.8027 13.0561 12.3067 13.1367C9.45444 13.6024 6.54558 13.6024 3.69334 13.1367C3.45329 13.0977 3.23497 12.9745 3.07742 12.7892C2.91986 12.6039 2.83335 12.3686 2.83334 12.1254V11.3334Z" fill="#949494"/>
</svg>
