<svg width="32" height="32" viewBox="0 0 32 32" fill="none" xmlns="http://www.w3.org/2000/svg">
<path fill-rule="evenodd" clip-rule="evenodd" d="M11.5625 9C10.1473 9 9 10.1473 9 11.5625V25.4375C9 26.8527 10.1473 28 11.5625 28H25.4375C26.8527 28 28 26.8527 28 25.4375V11.5625C28 10.1473 26.8527 9 25.4375 9H11.5625ZM7 11.5625C7 9.0427 9.0427 7 11.5625 7H25.4375C27.9573 7 30 9.0427 30 11.5625V25.4375C30 27.9573 27.9573 30 25.4375 30H11.5625C9.0427 30 7 27.9573 7 25.4375V11.5625Z" fill="#949494"/>
<path fill-rule="evenodd" clip-rule="evenodd" d="M6.99704 2.00001L7 2L20.5028 2C21.6945 2.0034 22.8364 2.47829 23.6791 3.32094C24.5217 4.16358 24.9966 5.30548 25 6.49716L24.9998 6.52083L24.9685 8.02083C24.957 8.573 24.5001 9.01129 23.9479 8.99979C23.3958 8.98828 22.9575 8.53134 22.969 7.97918L23 6.49203C22.9952 5.83272 22.7313 5.20157 22.2649 4.73515C21.7962 4.26649 21.1612 4.00223 20.4985 4H7.00159C6.20637 4.00272 5.44447 4.31981 4.88214 4.88214C4.31981 5.44448 4.00271 6.20638 4 7.00159V20.4985C4.00223 21.1612 4.26649 21.7962 4.73515 22.2649C5.20382 22.7335 5.83884 22.9978 6.50161 23H8C8.55228 23 9 23.4477 9 24C9 24.5523 8.55228 25 8 25H6.5L6.49716 25C5.30548 24.9966 4.16358 24.5217 3.32093 23.6791C2.47829 22.8364 2.00339 21.6945 2 20.5028L2 20.5V6.99705C2.00391 5.67296 2.53165 4.40421 3.46793 3.46793C4.40421 2.53165 5.67295 2.00392 6.99704 2.00001ZM18.5 12.5C19.0523 12.5 19.5 12.9477 19.5 13.5V17.5H23.5C24.0523 17.5 24.5 17.9477 24.5 18.5C24.5 19.0523 24.0523 19.5 23.5 19.5H19.5V23.5C19.5 24.0523 19.0523 24.5 18.5 24.5C17.9477 24.5 17.5 24.0523 17.5 23.5V19.5H13.5C12.9477 19.5 12.5 19.0523 12.5 18.5C12.5 17.9477 12.9477 17.5 13.5 17.5H17.5V13.5C17.5 12.9477 17.9477 12.5 18.5 12.5Z" fill="#949494"/>
</svg>
