<svg width="32" height="32" viewBox="0 0 32 32" fill="none" xmlns="http://www.w3.org/2000/svg">
<path d="M14.6667 20.0001H17.3334V22.6667H14.6667V20.0001ZM14.6667 9.33341H17.3334V17.3334H14.6667V9.33341ZM16.0001 2.66675C8.62675 2.66675 2.66675 8.66675 2.66675 16.0001C2.66675 19.5363 4.07151 22.9277 6.57199 25.4282C7.81011 26.6663 9.27996 27.6484 10.8976 28.3185C12.5153 28.9885 14.2491 29.3334 16.0001 29.3334C19.5363 29.3334 22.9277 27.9287 25.4282 25.4282C27.9287 22.9277 29.3334 19.5363 29.3334 16.0001C29.3334 14.2491 28.9885 12.5153 28.3185 10.8976C27.6484 9.27996 26.6663 7.81011 25.4282 6.57199C24.1901 5.33388 22.7202 4.35175 21.1025 3.68169C19.4849 3.01162 17.751 2.66675 16.0001 2.66675ZM16.0001 26.6667C13.1711 26.6667 10.458 25.5429 8.45761 23.5426C6.45722 21.5422 5.33341 18.8291 5.33341 16.0001C5.33341 13.1711 6.45722 10.458 8.45761 8.45761C10.458 6.45722 13.1711 5.33341 16.0001 5.33341C18.8291 5.33341 21.5422 6.45722 23.5426 8.45761C25.5429 10.458 26.6667 13.1711 26.6667 16.0001C26.6667 18.8291 25.5429 21.5422 23.5426 23.5426C21.5422 25.5429 18.8291 26.6667 16.0001 26.6667Z" fill="#949494"/>
</svg>
