<svg width="32" height="32" viewBox="0 0 32 32" fill="none" xmlns="http://www.w3.org/2000/svg">
<path d="M3.38669 6.27992L4.33335 5.33325L26.6667 27.6666L25.72 28.6133L21.2667 24.1466C19.44 24.9066 17.44 25.3333 15.3334 25.3333C9.25335 25.3333 4.00002 21.7999 1.52002 16.6666C2.81335 13.9999 4.84002 11.7733 7.33335 10.2399L3.38669 6.27992ZM15.3334 23.9999C17.0534 23.9999 18.7067 23.6933 20.2267 23.1199L18.7334 21.6133C17.76 22.2799 16.6 22.6666 15.3334 22.6666C12 22.6666 9.33335 19.9999 9.33335 16.6666C9.33335 15.3999 9.72002 14.2399 10.3867 13.2666L8.32002 11.2133C6.08755 12.5139 4.25265 14.3995 3.01335 16.6666C5.38669 21.0399 10 23.9999 15.3334 23.9999ZM27.6534 16.6666C25.28 12.2933 20.6667 9.33325 15.3334 9.33325C13.8 9.33325 12.3067 9.58659 10.92 10.0399L9.88002 8.99992C11.5734 8.34659 13.4134 7.99992 15.3334 7.99992C21.4134 7.99992 26.6667 11.5333 29.1467 16.6666C27.935 19.181 26.0584 21.3159 23.72 22.8399L22.76 21.8666C24.8 20.5866 26.4934 18.7999 27.6534 16.6666ZM15.3334 10.6666C18.6667 10.6666 21.3334 13.3333 21.3334 16.6666C21.3334 17.7599 21.04 18.7733 20.5334 19.6533L19.5467 18.6666C19.84 18.0533 20 17.3866 20 16.6666C20 15.4289 19.5084 14.2419 18.6332 13.3668C17.758 12.4916 16.571 11.9999 15.3334 11.9999C14.6134 11.9999 13.9467 12.1599 13.3334 12.4533L12.3467 11.4666C13.2267 10.9599 14.24 10.6666 15.3334 10.6666ZM10.6667 16.6666C10.6667 17.9043 11.1584 19.0912 12.0335 19.9664C12.9087 20.8416 14.0957 21.3333 15.3334 21.3333C16.2267 21.3333 17.0534 21.0799 17.76 20.6666L11.3334 14.2399C10.92 14.9466 10.6667 15.7733 10.6667 16.6666Z" fill="black"/>
</svg>
