<svg width="32" height="33" viewBox="0 0 32 33" fill="none" xmlns="http://www.w3.org/2000/svg">
<path d="M4.22727 7.55864L5.79818 6L26.3182 26.52L24.7595 28.0909L20.9795 24.3109C19.5682 24.7773 18.0709 25.0227 16.5 25.0227C10.3636 25.0227 5.12318 21.2059 3 15.8182C3.84682 13.6582 5.19682 11.7559 6.915 10.2464L4.22727 7.55864ZM16.5 12.1364C17.4765 12.1364 18.413 12.5243 19.1034 13.2147C19.7939 13.9052 20.1818 14.8417 20.1818 15.8182C20.1824 16.2361 20.1119 16.6512 19.9732 17.0455L15.2727 12.345C15.667 12.2063 16.082 12.1357 16.5 12.1364ZM16.5 6.61364C22.6364 6.61364 27.8768 10.4305 30 15.8182C28.9978 18.3622 27.2958 20.5706 25.0909 22.1877L23.3482 20.4327C25.0454 19.2588 26.4143 17.6703 27.3245 15.8182C26.3325 13.793 24.7921 12.0868 22.8786 10.8936C20.965 9.70032 18.7551 9.06789 16.5 9.06818C15.1623 9.06818 13.8491 9.28909 12.6218 9.68182L10.7318 7.80409C12.4991 7.04318 14.4505 6.61364 16.5 6.61364ZM5.67545 15.8182C6.66752 17.8433 8.20788 19.5495 10.1214 20.7428C12.035 21.936 14.2449 22.5685 16.5 22.5682C17.3468 22.5682 18.1814 22.4823 18.9545 22.3105L16.1564 19.5C15.3024 19.4085 14.5055 19.0273 13.8982 18.42C13.2908 17.8127 12.9097 17.0158 12.8182 16.1618L8.64545 11.9768C7.43045 13.02 6.41182 14.3209 5.67545 15.8182Z" fill="#949494"/>
</svg>
