<svg width="32" height="33" viewBox="0 0 32 33" fill="none" xmlns="http://www.w3.org/2000/svg">
<path d="M29.8898 15.4782C29.8495 15.3914 28.896 13.3075 26.7896 11.2343C23.9714 8.46464 20.4195 7 16.5008 7C12.5821 7 9.0302 8.46464 6.21525 11.2343C4.10893 13.3075 3.15537 15.3914 3.11183 15.4782C3.03809 15.6428 3 15.8207 3 16.0005C3 16.1804 3.03809 16.3583 3.11183 16.5229C3.15211 16.6107 4.10566 18.6936 6.21307 20.7668C9.0302 23.5364 12.5821 25 16.5008 25C20.4195 25 23.9714 23.5364 26.7853 20.7668C28.8927 18.6936 29.8463 16.6107 29.8865 16.5229C29.9608 16.3585 29.9994 16.1807 30 16.0009C30.0006 15.821 29.963 15.643 29.8898 15.4782ZM24.876 19.0139C22.5389 21.2789 19.7218 22.4286 16.5008 22.4286C13.2798 22.4286 10.4627 21.2789 8.12889 19.0129C7.21058 18.1184 6.42063 17.1048 5.78092 16C6.42083 14.8957 7.21076 13.8824 8.12889 12.9882C10.4638 10.7211 13.2798 9.57143 16.5008 9.57143C19.7218 9.57143 22.5378 10.7211 24.8727 12.9882C25.791 13.8823 26.5809 14.8956 27.2207 16C26.5809 17.1047 25.7909 18.1183 24.8727 19.0129L24.876 19.0139ZM16.5008 11.2857C15.5535 11.2857 14.6275 11.5622 13.8399 12.0802C13.0522 12.5982 12.4384 13.3345 12.0758 14.1959C11.7133 15.0573 11.6185 16.0052 11.8033 16.9197C11.9881 17.8342 12.4443 18.6742 13.1141 19.3335C13.7839 19.9928 14.6373 20.4418 15.5664 20.6237C16.4955 20.8056 17.4585 20.7122 18.3337 20.3554C19.2089 19.9986 19.9569 19.3944 20.4832 18.6191C21.0095 17.8439 21.2904 16.9324 21.2904 16C21.2889 14.7501 20.7839 13.5519 19.8859 12.6681C18.988 11.7843 17.7706 11.2871 16.5008 11.2857ZM16.5008 18.1429C16.0702 18.1429 15.6493 18.0172 15.2913 17.7817C14.9333 17.5463 14.6542 17.2116 14.4895 16.82C14.3247 16.4285 14.2816 15.9976 14.3656 15.5819C14.4496 15.1663 14.6569 14.7845 14.9614 14.4848C15.2659 14.1851 15.6538 13.981 16.0761 13.8983C16.4984 13.8156 16.9361 13.8581 17.3339 14.0203C17.7317 14.1824 18.0718 14.4571 18.311 14.8095C18.5502 15.1619 18.6779 15.5762 18.6779 16C18.6779 16.5683 18.4485 17.1134 18.0402 17.5152C17.632 17.9171 17.0782 18.1429 16.5008 18.1429Z" fill="#949494"/>
</svg>
