<svg width="32" height="32" viewBox="0 0 32 32" fill="none" xmlns="http://www.w3.org/2000/svg">
<path d="M15.3334 24C20.6667 24 25.28 21.04 27.6534 16.6667C25.28 12.2933 20.6667 9.33333 15.3334 9.33333C10 9.33333 5.38669 12.2933 3.01335 16.6667C5.38669 21.04 10 24 15.3334 24ZM15.3334 8C21.4134 8 26.6667 11.5333 29.1467 16.6667C26.6667 21.8 21.4134 25.3333 15.3334 25.3333C9.25335 25.3333 4.00002 21.8 1.52002 16.6667C4.00002 11.5333 9.25335 8 15.3334 8ZM15.3334 10.6667C18.6667 10.6667 21.3334 13.3333 21.3334 16.6667C21.3334 20 18.6667 22.6667 15.3334 22.6667C12 22.6667 9.33335 20 9.33335 16.6667C9.33335 13.3333 12 10.6667 15.3334 10.6667ZM15.3334 12C14.0957 12 12.9087 12.4917 12.0335 13.3668C11.1584 14.242 10.6667 15.429 10.6667 16.6667C10.6667 17.9043 11.1584 19.0913 12.0335 19.9665C12.9087 20.8417 14.0957 21.3333 15.3334 21.3333C16.571 21.3333 17.758 20.8417 18.6332 19.9665C19.5084 19.0913 20 17.9043 20 16.6667C20 15.429 19.5084 14.242 18.6332 13.3668C17.758 12.4917 16.571 12 15.3334 12Z" fill="black"/>
</svg>
