<svg width="24" height="24" viewBox="0 0 24 24" fill="none" xmlns="http://www.w3.org/2000/svg">
<path d="M12 14.423C12.1807 14.423 12.3283 14.3657 12.443 14.251C12.5583 14.1363 12.616 13.9887 12.616 13.808C12.616 13.6267 12.5583 13.4787 12.443 13.364C12.3283 13.2493 12.1807 13.192 12 13.192C11.8193 13.192 11.6717 13.2493 11.557 13.364C11.4423 13.4787 11.3847 13.6267 11.384 13.808C11.3833 13.9893 11.441 14.137 11.557 14.251C11.673 14.365 11.8207 14.4223 12 14.423ZM11.5 11.462H12.5V5.385H11.5V11.462ZM3 20.077V4.616C3 4.15533 3.15433 3.771 3.463 3.463C3.77167 3.155 4.15567 3.00067 4.615 3H19.385C19.845 3 20.229 3.15433 20.537 3.463C20.845 3.77167 20.9993 4.156 21 4.616V15.385C21 15.845 20.8457 16.2293 20.537 16.538C20.2283 16.8467 19.8443 17.0007 19.385 17H6.077L3 20.077ZM5.65 16H19.385C19.5383 16 19.6793 15.936 19.808 15.808C19.9367 15.68 20.0007 15.539 20 15.385V4.615C20 4.46167 19.936 4.32067 19.808 4.192C19.68 4.06333 19.539 3.99933 19.385 4H4.615C4.46167 4 4.32067 4.064 4.192 4.192C4.06333 4.32 3.99933 4.461 4 4.615V17.645L5.65 16Z" fill="#949494"/>
</svg>
