<svg width="32px" height="32px" viewBox="0 0 32 32" fill="none" xmlns="http://www.w3.org/2000/svg">
<path d="M18.1147 2.6665C18.8219 2.66665 19.5001 2.94771 20 3.44784L25.8854 9.33317C26.3855 9.83315 26.6666 10.5113 26.6667 11.2185V26.6665C26.6667 27.3737 26.3858 28.052 25.8857 28.5521C25.3856 29.0522 24.7073 29.3332 24 29.3332H8.00004C7.2928 29.3332 6.61452 29.0522 6.11442 28.5521C5.61433 28.052 5.33337 27.3737 5.33337 26.6665V5.33317C5.33337 4.62593 5.61433 3.94765 6.11442 3.44755C6.61452 2.94746 7.2928 2.6665 8.00004 2.6665H18.1147ZM16 5.33317H8.00004V26.6665H24V13.3332H18C17.4696 13.3332 16.9609 13.1225 16.5858 12.7474C16.2108 12.3723 16 11.8636 16 11.3332V5.33317ZM20 18.6665C20.3537 18.6665 20.6928 18.807 20.9428 19.057C21.1929 19.3071 21.3334 19.6462 21.3334 19.9998C21.3334 20.3535 21.1929 20.6926 20.9428 20.9426C20.6928 21.1927 20.3537 21.3332 20 21.3332H12C11.6464 21.3332 11.3073 21.1927 11.0572 20.9426C10.8072 20.6926 10.6667 20.3535 10.6667 19.9998C10.6667 19.6462 10.8072 19.3071 11.0572 19.057C11.3073 18.807 11.6464 18.6665 12 18.6665H20ZM13.3334 13.3332C13.687 13.3332 14.0261 13.4736 14.2762 13.7237C14.5262 13.9737 14.6667 14.3129 14.6667 14.6665C14.6667 15.0201 14.5262 15.3593 14.2762 15.6093C14.0261 15.8594 13.687 15.9998 13.3334 15.9998H12C11.6464 15.9998 11.3073 15.8594 11.0572 15.6093C10.8072 15.3593 10.6667 15.0201 10.6667 14.6665C10.6667 14.3129 10.8072 13.9737 11.0572 13.7237C11.3073 13.4736 11.6464 13.3332 12 13.3332H13.3334ZM18.6667 5.88517V10.6665H23.448L18.6667 5.88517Z" fill="#949494"/>
</svg>
