<svg width="32" height="32" viewBox="0 0 32 32" fill="none" xmlns="http://www.w3.org/2000/svg">
<path d="M5.33335 17.3333V28H14.6667V17.3333H5.33335ZM16 17.3333V28H25.3334V17.3333H16ZM26.6667 17.3333V29.3333H4.00002V17.3333H2.66669V9.33333H6.72002L6.66669 8.66667C6.66669 7.42899 7.15835 6.24201 8.03352 5.36684C8.90869 4.49167 10.0957 4 11.3334 4C13.0267 4 14.52 4.90667 15.3334 6.26667C16.1467 4.90667 17.64 4 19.3334 4C20.571 4 21.758 4.49167 22.6332 5.36684C23.5084 6.24201 24 7.42899 24 8.66667L23.9467 9.33333H28V17.3333H26.6667ZM4.00002 10.6667V16H14.6667V10.6667H4.00002ZM26.6667 16V10.6667H16V16H26.6667ZM22.6 9.33333L22.6667 8.66667C22.6667 7.78261 22.3155 6.93477 21.6904 6.30964C21.0653 5.68452 20.2174 5.33333 19.3334 5.33333C18.4493 5.33333 17.6015 5.68452 16.9763 6.30964C16.3512 6.93477 16 7.78261 16 8.66667V9.33333H22.6ZM14.6667 9.33333V8.66667C14.6667 7.78261 14.3155 6.93477 13.6904 6.30964C13.0653 5.68452 12.2174 5.33333 11.3334 5.33333C10.4493 5.33333 9.60145 5.68452 8.97633 6.30964C8.35121 6.93477 8.00002 7.78261 8.00002 8.66667L8.06669 9.33333H14.6667Z" fill="black"/>
</svg>
