<svg width="32" height="32" viewBox="0 0 32 32" fill="none" xmlns="http://www.w3.org/2000/svg">
<path fill-rule="evenodd" clip-rule="evenodd" d="M12 17.3333C12.7072 17.3333 13.3855 17.6143 13.8856 18.1144C14.3857 18.6145 14.6667 19.2928 14.6667 20V25.3333C14.6667 26.0406 14.3857 26.7189 13.8856 27.219C13.3855 27.719 12.7072 28 12 28H6.66667C5.95942 28 5.28115 27.719 4.78105 27.219C4.28095 26.7189 4 26.0406 4 25.3333V20C4 19.2928 4.28095 18.6145 4.78105 18.1144C5.28115 17.6143 5.95942 17.3333 6.66667 17.3333H12ZM25.3333 17.3333C26.0061 17.3331 26.6541 17.5872 27.1474 18.0447C27.6407 18.5021 27.9429 19.1291 27.9933 19.8L28 20V25.3333C28.0002 26.0061 27.7461 26.6541 27.2887 27.1474C26.8312 27.6407 26.2042 27.9429 25.5333 27.9933L25.3333 28H20C19.3272 28.0002 18.6792 27.7461 18.1859 27.2887C17.6926 26.8312 17.3905 26.2042 17.34 25.5333L17.3333 25.3333V20C17.3331 19.3272 17.5872 18.6792 18.0447 18.1859C18.5021 17.6926 19.1291 17.3905 19.8 17.34L20 17.3333H25.3333ZM12 20H6.66667V25.3333H12V20ZM25.3333 20H20V25.3333H25.3333V20ZM25.3333 4C26.0061 3.99979 26.6541 4.25388 27.1474 4.71133C27.6407 5.16878 27.9429 5.79579 27.9933 6.46667L28 6.66667V12C28.0002 12.6728 27.7461 13.3208 27.2887 13.8141C26.8312 14.3074 26.2042 14.6095 25.5333 14.66L25.3333 14.6667H20C19.3272 14.6669 18.6792 14.4128 18.1859 13.9553C17.6926 13.4979 17.3905 12.8709 17.34 12.2L17.3333 12V6.66667C17.3331 5.9939 17.5872 5.34591 18.0447 4.8526C18.5021 4.35929 19.1291 4.05712 19.8 4.00667L20 4H25.3333ZM12 4C12.6728 3.99979 13.3208 4.25388 13.8141 4.71133C14.3074 5.16878 14.6095 5.79579 14.66 6.46667L14.6667 6.66667V12C14.6669 12.6728 14.4128 13.3208 13.9553 13.8141C13.4979 14.3074 12.8709 14.6095 12.2 14.66L12 14.6667H6.66667C5.9939 14.6669 5.34591 14.4128 4.8526 13.9553C4.35929 13.4979 4.05712 12.8709 4.00667 12.2L4 12V6.66667C3.99979 5.9939 4.25388 5.34591 4.71133 4.8526C5.16878 4.35929 5.79579 4.05712 6.46667 4.00667L6.66667 4H12ZM25.3333 6.66667H20V12H25.3333V6.66667ZM12 6.66667H6.66667V12H12V6.66667Z" fill="#949494"/>
</svg>
