<svg width="32" height="32" viewBox="0 0 32 32" fill="none" xmlns="http://www.w3.org/2000/svg">
<path d="M5.65335 16.3333C5.12616 15.8096 4.70847 15.1862 4.42462 14.4995C4.14077 13.8127 3.99643 13.0764 4.00002 12.3333C4.00002 10.8304 4.59704 9.38904 5.65975 8.32634C6.72246 7.26363 8.16379 6.66661 9.66669 6.66661C11.7734 6.66661 13.6134 7.81328 14.5867 9.51994H16.08C16.5748 8.65202 17.2908 7.93073 18.1551 7.42951C19.0193 6.9283 20.001 6.66506 21 6.66661C22.5029 6.66661 23.9443 7.26363 25.007 8.32634C26.0697 9.38904 26.6667 10.8304 26.6667 12.3333C26.6667 13.8933 26 15.3333 25.0134 16.3333L15.3334 25.9999L5.65335 16.3333ZM25.9467 17.2799C27.2134 15.9999 28 14.2666 28 12.3333C28 10.4768 27.2625 8.69628 25.9498 7.38353C24.637 6.07077 22.8565 5.33328 21 5.33328C18.6667 5.33328 16.6 6.46661 15.3334 8.22661C14.6868 7.32861 13.8355 6.5977 12.85 6.09451C11.8645 5.59133 10.7732 5.33037 9.66669 5.33328C7.81017 5.33328 6.02969 6.07077 4.71694 7.38353C3.40418 8.69628 2.66669 10.4768 2.66669 12.3333C2.66669 14.2666 3.45335 15.9999 4.72002 17.2799L15.3334 27.8933L25.9467 17.2799Z" fill="black"/>
</svg>
