<svg width="32" height="32" viewBox="0 0 32 32" fill="none" xmlns="http://www.w3.org/2000/svg">
<path d="M15.3334 5.33333C12.3276 5.33333 9.44489 6.52738 7.31948 8.65279C5.19406 10.7782 4.00002 13.6609 4.00002 16.6667C4.00002 19.6725 5.19406 22.5551 7.31948 24.6805C9.44489 26.806 12.3276 28 15.3334 28C16.8217 28 18.2954 27.7069 19.6704 27.1373C21.0455 26.5677 22.2948 25.7329 23.3472 24.6805C24.3996 23.6281 25.2344 22.3788 25.804 21.0037C26.3735 19.6287 26.6667 18.155 26.6667 16.6667C26.6667 13.6609 25.4726 10.7782 23.3472 8.65279C21.2218 6.52738 18.3391 5.33333 15.3334 5.33333ZM15.3334 4C18.6928 4 21.9146 5.33452 24.29 7.70998C26.6655 10.0854 28 13.3073 28 16.6667C28 20.0261 26.6655 23.2479 24.29 25.6234C21.9146 27.9988 18.6928 29.3333 15.3334 29.3333C11.9739 29.3333 8.75213 27.9988 6.37667 25.6234C4.00121 23.2479 2.66669 20.0261 2.66669 16.6667C2.66669 13.3073 4.00121 10.0854 6.37667 7.70998C8.75213 5.33452 11.9739 4 15.3334 4ZM14.6667 22.6667H16V25.3333H14.6667V22.6667ZM15.3334 8C16.571 8 17.758 8.49167 18.6332 9.36684C19.5084 10.242 20 11.429 20 12.6667C20 13.8667 19.0667 14.6667 18.08 15.5733L16.84 16.7733C16.0534 17.6667 15.96 19.3733 16 19.96V20H14.6667C14.6667 19.9333 14.5334 17.3867 15.8267 15.8933L17.2 14.5733C18 13.8667 18.6667 13.2667 18.6667 12.6667C18.6667 11.7826 18.3155 10.9348 17.6904 10.3096C17.0653 9.68452 16.2174 9.33333 15.3334 9.33333C14.4493 9.33333 13.6015 9.68452 12.9763 10.3096C12.3512 10.9348 12 11.7826 12 12.6667H10.6667C10.6667 11.429 11.1584 10.242 12.0335 9.36684C12.9087 8.49167 14.0957 8 15.3334 8Z" fill="black"/>
</svg>
