<svg width="32" height="32" viewBox="0 0 32 32" fill="none" xmlns="http://www.w3.org/2000/svg">
<path d="M14.6667 22.6667H17.3334V14.6667H14.6667V22.6667ZM16.0001 12.0001C16.3779 12.0001 16.6947 11.8721 16.9508 11.6161C17.2067 11.3601 17.3343 11.0436 17.3334 10.6667C17.3325 10.2899 17.2045 9.97341 16.9494 9.71741C16.6943 9.46142 16.3779 9.33342 16.0001 9.33342C15.6223 9.33342 15.3059 9.46142 15.0507 9.71741C14.7956 9.97341 14.6676 10.2899 14.6667 10.6667C14.6659 11.0436 14.7939 11.3605 15.0507 11.6174C15.3076 11.8743 15.6241 12.0019 16.0001 12.0001ZM16.0001 29.3334C14.1556 29.3334 12.4223 28.9832 10.8001 28.2827C9.17786 27.5823 7.76675 26.6325 6.56675 25.4334C5.36675 24.2343 4.41697 22.8232 3.71742 21.2001C3.01786 19.577 2.66764 17.8436 2.66675 16.0001C2.66586 14.1565 3.01608 12.4232 3.71742 10.8001C4.41875 9.17697 5.36853 7.76586 6.56675 6.56675C7.76497 5.36764 9.17608 4.41786 10.8001 3.71741C12.4241 3.01697 14.1574 2.66675 16.0001 2.66675C17.8427 2.66675 19.5761 3.01697 21.2001 3.71741C22.8241 4.41786 24.2352 5.36764 25.4334 6.56675C26.6316 7.76586 27.5819 9.17697 28.2841 10.8001C28.9863 12.4232 29.3361 14.1565 29.3334 16.0001C29.3308 17.8436 28.9805 19.577 28.2828 21.2001C27.585 22.8232 26.6352 24.2343 25.4334 25.4334C24.2316 26.6325 22.8205 27.5827 21.2001 28.2841C19.5796 28.9854 17.8463 29.3352 16.0001 29.3334ZM16.0001 26.6667C18.9779 26.6667 21.5001 25.6334 23.5667 23.5667C25.6334 21.5001 26.6668 18.9779 26.6668 16.0001C26.6668 13.0223 25.6334 10.5001 23.5667 8.43341C21.5001 6.36675 18.9779 5.33341 16.0001 5.33341C13.0223 5.33341 10.5001 6.36675 8.43342 8.43341C6.36675 10.5001 5.33342 13.0223 5.33342 16.0001C5.33342 18.9779 6.36675 21.5001 8.43342 23.5667C10.5001 25.6334 13.0223 26.6667 16.0001 26.6667Z" fill="#949494"/>
</svg>
