<svg width="32" height="32" viewBox="0 0 32 32" fill="none" xmlns="http://www.w3.org/2000/svg">
<path fill-rule="evenodd" clip-rule="evenodd" d="M6.8667 3.99995C6.8667 3.55812 7.22487 3.19995 7.6667 3.19995H26.3334C26.7752 3.19995 27.1334 3.55812 27.1334 3.99995V28C27.1334 28.3123 26.9515 28.5961 26.6678 28.7267C26.384 28.8573 26.0502 28.8107 25.8129 28.6075L24.4369 27.4289C24.0986 27.1389 23.6676 26.9794 23.222 26.9794C22.7765 26.9794 22.3456 27.1388 22.0073 27.4287L20.6311 28.6075C20.3315 28.8642 19.8895 28.8641 19.59 28.6073L18.2153 27.4286C17.8769 27.1384 17.4458 26.9788 17 26.9788C16.5543 26.9788 16.1232 27.1383 15.7848 27.4285L14.4101 28.6073C14.1106 28.8641 13.6686 28.8642 13.3689 28.6075L11.9929 27.4289C11.6546 27.1389 11.2236 26.9794 10.778 26.9794C10.3325 26.9794 9.90161 27.1388 9.5633 27.4287L8.18714 28.6075C7.9499 28.8107 7.61608 28.8573 7.3323 28.7267C7.04852 28.5961 6.8667 28.3123 6.8667 28V3.99995ZM8.4667 4.79995V26.2613L8.5221 26.2139C9.15039 25.6754 9.95057 25.3794 10.778 25.3794C11.6055 25.3794 12.4057 25.6754 13.034 26.2139L13.8891 26.9464L14.7432 26.214C14.7433 26.214 14.7432 26.214 14.7432 26.214C15.3716 25.6751 16.1722 25.3788 17 25.3788C17.8279 25.3788 18.6284 25.6751 19.2568 26.214C19.2568 26.214 19.2567 26.2139 19.2568 26.214L20.111 26.9464L20.9661 26.2139C20.9662 26.2138 20.966 26.2139 20.9661 26.2139C21.5944 25.6755 22.3946 25.3794 23.222 25.3794C24.0494 25.3794 24.8495 25.6753 25.4778 26.2137C25.4779 26.2138 25.4778 26.2137 25.4778 26.2137L25.5334 26.2613V4.79995H8.4667ZM12.2 9.33328C12.2 8.89146 12.5582 8.53328 13 8.53328H21C21.4419 8.53328 21.8 8.89146 21.8 9.33328C21.8 9.77511 21.4419 10.1333 21 10.1333H13C12.5582 10.1333 12.2 9.77511 12.2 9.33328ZM12.2 14.6666C12.2 14.2248 12.5582 13.8666 13 13.8666H21C21.4419 13.8666 21.8 14.2248 21.8 14.6666C21.8 15.1084 21.4419 15.4666 21 15.4666H13C12.5582 15.4666 12.2 15.1084 12.2 14.6666ZM14.8667 20C14.8667 19.5581 15.2249 19.2 15.6667 19.2H21C21.4419 19.2 21.8 19.5581 21.8 20C21.8 20.4418 21.4419 20.8 21 20.8H15.6667C15.2249 20.8 14.8667 20.4418 14.8667 20Z" fill="#949494"/>
</svg>
