 <svg
      width="32"
      height="33"
      viewBox="0 0 32 33"
      fill="none"
      xmlns="http://www.w3.org/2000/svg"
    >
      <g clip-path="url(#clip0_2855_2064)">
        <path
          d="M8 0.5C6.93913 0.5 5.92172 0.921427 5.17157 1.67157C4.42143 2.42172 4 3.43913 4 4.5V28.5C4 29.5609 4.42143 30.5783 5.17157 31.3284C5.92172 32.0786 6.93913 32.5 8 32.5H24C25.0609 32.5 26.0783 32.0786 26.8284 31.3284C27.5786 30.5783 28 29.5609 28 28.5V4.5C28 3.43913 27.5786 2.42172 26.8284 1.67157C26.0783 0.921427 25.0609 0.5 24 0.5L8 0.5ZM8 2.5H24C24.5304 2.5 25.0391 2.71071 25.4142 3.08579C25.7893 3.46086 26 3.96957 26 4.5V28.5C26 29.0304 25.7893 29.5391 25.4142 29.9142C25.0391 30.2893 24.5304 30.5 24 30.5H8C7.46957 30.5 6.96086 30.2893 6.58579 29.9142C6.21071 29.5391 6 29.0304 6 28.5V4.5C6 3.96957 6.21071 3.46086 6.58579 3.08579C6.96086 2.71071 7.46957 2.5 8 2.5Z"
          fill="#4F43D6"
        />
        <path
          d="M17.9094 12.0216C17.9094 12.0216 16.7009 11.4537 14.6016 12.9993C12.5024 14.5449 12.8603 15.6742 12.8603 15.6742C12.5335 15.5446 12.1121 15.2554 12.0162 15.057C11.9712 14.9562 11.9576 14.8441 11.9773 14.7355C12.0343 14.3465 12.3662 13.2145 13.9883 12.1422C16.0292 10.7976 16.9537 11.2346 16.9537 11.2346C17.3381 11.4049 17.6685 11.677 17.9094 12.0216Z"
          fill="#4F43D6"
        />
        <path
          d="M16.4716 14.756C16.9035 14.55 17.3548 14.3871 17.8188 14.2698C17.4609 15.2124 16.8035 16.3172 15.9257 17.4647C14.2128 19.7014 12.2679 20.4029 11.6714 20.3497C11.6175 20.3444 11.566 20.3247 11.5223 20.2926C11.3 20.144 11.121 19.9391 11.0037 19.6988C11.0037 19.6988 11.1126 19.6599 11.3032 19.5782L11.4614 19.5082C12.7697 18.8976 13.9492 18.0424 14.9364 16.9888C15.5525 16.322 16.0696 15.5701 16.4716 14.756Z"
          fill="#4F43D6"
        />
        <path
          d="M18.0923 13.2962C17.711 13.3173 17.3343 13.3893 16.972 13.5102C17.278 12.5195 17.2975 11.6651 16.9578 11.2437L17.9095 12.0216C18.1221 12.3367 18.1753 12.7724 18.0923 13.2962Z"
          fill="#4F43D6"
        />
        <path
          d="M19.075 14.0483C19.4118 14.2444 19.7095 14.5011 19.9528 14.8056C19.9528 14.8056 18.0079 14.1832 15.0593 16.2695C12.1108 18.3558 11.5221 20.289 11.5221 20.289L11.0242 19.7159C11.015 19.7051 11.0082 19.6925 11.0042 19.6788C11.0002 19.6652 10.999 19.6509 11.0008 19.6368C11.0475 19.3308 11.4378 17.5181 14.4616 15.472C17.7809 13.2315 19.075 14.0483 19.075 14.0483Z"
          fill="#4F43D6"
        />
        <path
          d="M18.97 16.8464C19.3717 16.6947 19.7893 16.5886 20.2147 16.53C20.0851 17.12 19.7674 17.863 19.075 18.7589C17.0367 21.395 15.4133 21.102 15.4133 21.102C15.0783 20.9934 14.797 20.7617 14.6262 20.4536C14.7985 20.4431 14.9693 20.4149 15.1358 20.3694C15.2006 20.3538 15.2655 20.3344 15.3472 20.3097C16.0668 20.0854 17.2156 19.5123 18.2814 18.0445C18.5554 17.6724 18.7864 17.2705 18.97 16.8464Z"
          fill="#4F43D6"
        />
        <path
          d="M19.075 14.0483L19.9528 14.8056C19.9528 14.8056 20.2316 15.1232 20.2743 15.7586C19.9321 15.7797 19.5923 15.8309 19.2591 15.9116C19.4769 14.7537 19.075 14.0483 19.075 14.0483Z"
          fill="#4F43D6"
        />
        <path
          d="M22.5111 16.7454C22.5111 16.7454 20.8579 15.7327 18.0377 16.9775C15.2175 18.2223 14.6639 19.9183 14.6016 20.3254C14.597 20.3529 14.5999 20.3811 14.6099 20.4071C14.62 20.4331 14.6368 20.4559 14.6587 20.4732L15.4198 21.1021C15.4198 21.1021 15.8905 19.034 18.4617 17.7373C21.0329 16.4407 22.9999 17.5026 22.9999 17.5026C22.9807 17.3478 22.9267 17.1992 22.8421 17.0681C22.7574 16.937 22.6443 16.8267 22.5111 16.7454Z"
          fill="#4F43D6"
        />
        <path
          d="M11.3094 19.5781L11.4676 19.5081C11.4418 19.5651 11.4193 19.6235 11.4002 19.6831L11.3094 19.5781Z"
          fill="#4F43D6"
        />
        <path
          d="M15.136 20.3643C15.2008 20.3488 15.2656 20.3293 15.3473 20.3047C15.3071 20.424 15.2916 20.4927 15.2916 20.4927L15.136 20.3643Z"
          fill="#4F43D6"
        />
      </g>
      <defs>
        <clipPath id="clip0_2855_2064">
          <rect
            width="32"
            height="32"
            fill="white"
            transform="translate(0 0.5)"
          />
        </clipPath>
      </defs>
    </svg>