<svg width="90" height="18" viewBox="0 0 90 18" fill="none" xmlns="http://www.w3.org/2000/svg">
<g clip-path="url(#clip0_3320_3801)">
<path d="M4.63154 12.9121C4.63154 14.3924 4.33499 15.5317 3.7419 16.3301C3.14881 17.1285 2.2991 17.5307 1.19274 17.5368C0.778989 17.5355 0.371016 17.4393 0 17.2556V15.9091C0.365505 16.152 0.790903 16.2888 1.22912 16.3043C2.5426 16.3043 3.19934 15.2551 3.19934 13.1568V4.28418H4.63761L4.63154 12.9121ZM3.92984 1.9969C3.80824 1.9994 3.68738 1.97743 3.5744 1.93226C3.46142 1.8871 3.35862 1.81968 3.27208 1.73397C3.18282 1.64767 3.11257 1.54358 3.06585 1.42841C3.01912 1.31324 2.99697 1.18953 3.00081 1.06526C2.9986 0.943453 3.02039 0.822412 3.06494 0.709075C3.10948 0.595736 3.17589 0.49233 3.26038 0.404789C3.34485 0.317245 3.44574 0.247291 3.55724 0.198932C3.66874 0.150573 3.78867 0.124762 3.91013 0.122982H3.93591C4.12327 0.119302 4.30741 0.172256 4.46436 0.274955C4.62131 0.377653 4.74381 0.525344 4.81591 0.698808C4.88801 0.872273 4.90637 1.06348 4.86864 1.24756C4.83088 1.43164 4.73876 1.60007 4.60425 1.73093C4.51566 1.81874 4.4102 1.88759 4.29427 1.9333C4.17833 1.97904 4.05434 2.00066 3.92984 1.9969Z" fill="#4F43D6"/>
<path d="M14.8056 13.2905H13.3673V11.8664H13.3325C12.7374 12.9566 11.8134 13.5018 10.5605 13.5018C8.42056 13.5018 7.35059 12.2236 7.35059 9.66729V4.28418H8.77976V9.43782C8.77976 11.3375 9.50521 12.2874 10.9561 12.2874C11.2845 12.2959 11.6106 12.2304 11.9104 12.0957C12.2102 11.9611 12.476 11.7607 12.6884 11.5093C13.143 10.9916 13.3694 10.3127 13.3673 9.47277V4.28418H14.8056V13.2905Z" fill="#4F43D6"/>
<path d="M17.165 12.9773V11.4165C17.9087 11.9848 18.8187 12.291 19.7536 12.2874C21.0177 12.2874 21.6491 11.8654 21.648 11.0214C21.6543 10.8072 21.5979 10.5959 21.4859 10.4134C21.3697 10.2381 21.2204 10.0874 21.0464 9.96966C20.8441 9.82944 20.6265 9.71268 20.3977 9.62163C20.1493 9.52132 19.8825 9.41342 19.5945 9.30096C19.2369 9.1605 18.8871 9.00017 18.5473 8.8207C18.269 8.6775 18.0137 8.49362 17.7894 8.27509C17.5925 8.07864 17.4378 7.84382 17.3348 7.58511C17.2278 7.29332 17.1764 6.98402 17.1832 6.67323C17.1756 6.27984 17.2757 5.89189 17.4727 5.55162C17.6676 5.22614 17.9308 4.94714 18.244 4.73396C18.5805 4.50744 18.9525 4.33944 19.3444 4.23699C19.7607 4.12608 20.1897 4.06989 20.6205 4.06981C21.3371 4.05781 22.0484 4.19549 22.7091 4.47408V5.9346C22.0322 5.49663 21.241 5.27022 20.4356 5.28414C20.1902 5.281 19.9453 5.31168 19.7081 5.37531C19.5092 5.43048 19.3207 5.51831 19.1505 5.6352C19.0031 5.74054 18.8805 5.87698 18.7913 6.03491C18.706 6.1931 18.6624 6.37035 18.664 6.55012C18.6577 6.75415 18.7015 6.95661 18.7913 7.13979C18.883 7.30638 19.0103 7.45063 19.1642 7.56231C19.3487 7.69748 19.5493 7.80927 19.7613 7.89514C19.9947 7.99544 20.2599 8.10336 20.5584 8.22191C20.9232 8.35903 21.2803 8.5158 21.6284 8.69151C21.9207 8.83638 22.1924 9.01988 22.4362 9.23713C22.6527 9.43261 22.8272 9.67054 22.9484 9.93622C23.0758 10.233 23.1374 10.554 23.1288 10.877C23.1396 11.2838 23.0378 11.6857 22.8347 12.0381C22.6392 12.3679 22.3705 12.6482 22.0496 12.8573C21.7026 13.082 21.3196 13.2455 20.9175 13.3406C20.4783 13.4458 20.0279 13.4969 19.5764 13.4926C18.7426 13.5212 17.9146 13.3443 17.165 12.9773Z" fill="#4F43D6"/>
<path d="M29.4972 13.2023C29.0812 13.4091 28.6196 13.5063 28.1559 13.485C26.5828 13.485 25.7963 12.605 25.7963 10.8451V5.51516H24.252V4.28413H25.7963V1.61841H27.2345V4.28413H29.4972V5.51516H27.2345V10.5898C27.2345 11.1977 27.3376 11.6248 27.5376 11.8831C27.7376 12.1415 28.0818 12.2707 28.5545 12.2707C28.8923 12.277 29.2225 12.17 29.4927 11.9667L29.4972 13.2023Z" fill="#4F43D6"/>
<path d="M30.5412 13.0532V10.8008C30.9679 11.0615 31.4263 11.2658 31.9051 11.4088C32.3214 11.5392 32.7543 11.6078 33.1904 11.6124C33.588 11.6304 33.9848 11.5609 34.3528 11.4088C34.4771 11.3633 34.5844 11.2806 34.6604 11.1718C34.7363 11.0631 34.7771 10.9336 34.7771 10.8008C34.779 10.718 34.7629 10.6356 34.7297 10.5598C34.6965 10.4838 34.6469 10.4162 34.5846 10.3616C34.4369 10.2342 34.2695 10.1315 34.0891 10.0577C33.8735 9.96489 33.6523 9.88572 33.4268 9.82058C33.1873 9.75067 32.9564 9.67164 32.7342 9.58349C32.409 9.46304 32.0938 9.3172 31.7914 9.1473C31.5352 9.00566 31.3038 8.82289 31.1065 8.60626C30.9214 8.39897 30.7789 8.15732 30.6866 7.89499C30.5819 7.58635 30.5306 7.26199 30.5351 6.936C30.5229 6.47975 30.6367 6.02898 30.864 5.63354C31.0834 5.27188 31.3839 4.96644 31.7415 4.74142C32.1281 4.50263 32.5518 4.33006 32.9948 4.23076C33.4773 4.12134 33.9704 4.06679 34.4649 4.06814C34.8708 4.06855 35.2762 4.09954 35.6774 4.16085C36.0873 4.22165 36.4923 4.31103 36.8898 4.42833V6.57581C36.537 6.37183 36.1575 6.21836 35.7622 6.11987C35.3771 6.01996 34.981 5.9689 34.5832 5.96789C34.4108 5.96818 34.2388 5.98445 34.0694 6.01652C33.9225 6.0452 33.7798 6.0927 33.6449 6.15786C33.5311 6.21272 33.4318 6.294 33.3555 6.39495C33.2862 6.49081 33.2491 6.60631 33.2494 6.72474C33.2464 6.88085 33.3035 7.03214 33.4087 7.14725C33.5261 7.27317 33.6659 7.37623 33.8209 7.45121C34.0029 7.542 34.192 7.61824 34.3861 7.67918L35.0045 7.88588C35.3469 8.0043 35.681 8.14546 36.0047 8.30838C36.2852 8.44873 36.5435 8.62948 36.7717 8.84486C36.9844 9.04786 37.1519 9.29395 37.2627 9.56676C37.3995 9.94825 37.4546 10.3544 37.4246 10.7587C37.3947 11.163 37.2801 11.5564 37.0884 11.9133C36.8597 12.2901 36.5442 12.6065 36.1685 12.8359C35.7598 13.0841 35.3119 13.2599 34.8439 13.3556C34.3322 13.4653 33.8105 13.5198 33.2873 13.5182C32.3519 13.5255 31.4223 13.3681 30.5412 13.0532Z" fill="#4F43D6"/>
<path d="M40.4348 2.85856C40.012 2.87562 39.5994 2.72553 39.286 2.44062C39.1413 2.31271 39.0257 2.15501 38.9472 1.97822C38.8688 1.80144 38.8293 1.60976 38.8314 1.41627C38.8269 1.2231 38.8653 1.03135 38.944 0.854951C39.0226 0.678556 39.1395 0.52194 39.286 0.396487C39.6151 0.139531 40.0201 0 40.4371 0C40.854 0 41.2592 0.139531 41.5881 0.396487C41.733 0.522821 41.8479 0.679861 41.9248 0.856237C42.0014 1.03261 42.0382 1.22391 42.0323 1.41627C42.0384 1.61133 42.0018 1.80537 41.9251 1.98472C41.8485 2.16408 41.7334 2.32436 41.5881 2.4543C41.2704 2.73368 40.8569 2.8786 40.4348 2.85856ZM41.7987 13.2905H39.0314V4.28414H41.8034L41.7987 13.2905Z" fill="#4F43D6"/>
<path d="M52.943 12.2614C52.943 13.9332 52.4606 15.2275 51.4956 16.1445C50.5308 17.0614 49.1335 17.5204 47.3037 17.5214C46.0912 17.5214 45.1314 17.3482 44.4242 17.0016V14.6627C45.2673 15.1792 46.2337 15.4585 47.2219 15.4712C48.1565 15.4712 48.8815 15.2235 49.3967 14.728C49.912 14.2326 50.1691 13.5598 50.1682 12.7097V11.9969H50.1332C49.5007 13.0101 48.5682 13.5167 47.3355 13.5167C46.1897 13.5167 45.2804 13.1115 44.6075 12.3009C43.9346 11.4903 43.5987 10.4057 43.5996 9.047C43.5996 7.52721 43.9736 6.31643 44.7212 5.41469C45.4689 4.51294 46.4545 4.06409 47.6781 4.06814C48.7712 4.06814 49.5897 4.49065 50.1332 5.33565H50.1682V4.28852H52.94L52.943 12.2614ZM50.206 8.96343V8.25063C50.2209 7.72002 50.042 7.20222 49.7028 6.79466C49.545 6.59933 49.3447 6.44292 49.1172 6.33752C48.8895 6.23212 48.6409 6.18053 48.3903 6.18674C48.1088 6.17715 47.829 6.23795 47.5766 6.36371C47.3242 6.48948 47.107 6.67621 46.9445 6.90714C46.593 7.38841 46.417 8.06572 46.417 8.9391C46.417 9.68989 46.5838 10.2836 46.9172 10.7203C47.0748 10.932 47.2811 11.1022 47.5188 11.2163C47.7563 11.3304 48.0179 11.385 48.2813 11.3753C48.5488 11.3833 48.8145 11.3272 49.0561 11.2117C49.2978 11.0962 49.5086 10.9246 49.671 10.7112C50.0287 10.2735 50.2069 9.6909 50.206 8.96343Z" fill="#4F43D6"/>
<path d="M63.9338 13.2904H61.171V8.2857C61.171 6.89054 60.6739 6.19294 59.6796 6.19294C59.4532 6.18841 59.229 6.23588 59.0238 6.33178C58.8186 6.42767 58.6381 6.56942 58.496 6.74616C58.1766 7.14355 58.0112 7.64343 58.0308 8.15348V13.2904H55.2588V4.28408H58.0308V5.70812H58.064C58.7249 4.61388 59.6846 4.06574 60.9435 4.06372C62.932 4.06372 63.9263 5.30084 63.9263 7.77505L63.9338 13.2904Z" fill="#4F43D6"/>
<path d="M81.2423 17.5368C86.071 17.5368 89.9856 13.611 89.9856 8.76838C89.9856 3.92573 86.071 0 81.2423 0C76.4134 0 72.499 3.92573 72.499 8.76838C72.499 13.611 76.4134 17.5368 81.2423 17.5368Z" fill="#4F43D6"/>
<path d="M76.8425 8.27542C76.8425 8.27542 76.459 7.07513 78.6898 5.43105C79.9119 4.53082 80.8475 4.30401 81.4446 4.28428C81.4746 4.85777 81.3945 5.43169 81.2085 5.97485C81.5923 5.84624 81.9914 5.76995 82.3955 5.74802C82.4841 5.1845 82.4279 4.72806 82.2017 4.39276C81.9455 4.02578 81.593 3.73713 81.1832 3.55875C81.1832 3.55875 80.1999 3.09385 78.0394 4.52378C76.32 5.66351 75.9674 6.86661 75.9069 7.28081C75.8859 7.39642 75.9001 7.51574 75.9477 7.62314C76.0502 7.82883 76.497 8.13453 76.8425 8.27542Z" fill="white"/>
<path d="M80.0987 10.1798C80.7355 9.36306 81.2929 8.48701 81.7633 7.56369C82.3721 7.3568 83.0112 7.2544 83.6541 7.26081C83.72 7.68169 83.711 8.111 83.6274 8.52873C83.9805 8.44206 84.3407 8.38736 84.7035 8.3653C84.6961 8.00074 84.5775 7.6472 84.3635 7.35237C84.1055 7.02824 83.7897 6.755 83.4321 6.54654C83.4321 6.54654 82.0653 5.67168 78.5464 8.06664C75.3407 10.2404 74.9263 12.1691 74.8772 12.4945C74.8743 12.5094 74.8743 12.5247 74.8772 12.5396C74.8772 12.5396 74.8842 12.5508 74.887 12.5579C75.0107 12.8092 75.1976 13.0238 75.4292 13.1806C75.4754 13.2144 75.5296 13.2353 75.5865 13.2412C76.2201 13.3032 78.2823 12.5565 80.0987 10.1798ZM76.0403 12.0113C76.5712 11.2097 77.5236 10.084 79.1743 8.91191C79.496 8.6837 79.805 8.48928 80.1014 8.31741C79.7902 8.80048 79.4384 9.2558 79.0493 9.67831C78.1759 10.6109 77.1603 11.3984 76.0403 12.0113Z" fill="white"/>
<path d="M87.6083 10.2181C87.5882 10.0534 87.5311 9.89547 87.4414 9.75615C87.3516 9.61681 87.2315 9.49971 87.09 9.41364C87.09 9.41364 85.3383 8.33731 82.3474 9.66018C79.3568 10.983 78.7709 12.7877 78.7049 13.2202C78.6993 13.2495 78.7024 13.2798 78.7133 13.3076C78.721 13.3247 78.7314 13.3404 78.7444 13.354H78.7261C78.9077 13.6809 79.2058 13.927 79.5605 14.043C79.5605 14.043 81.2826 14.3543 83.4433 11.5522C83.8446 11.0474 84.1755 10.49 84.4266 9.89545C86.3117 9.51506 87.6083 10.2181 87.6083 10.2181ZM82.5961 10.7943C81.7027 12.0298 80.7559 12.668 80.0198 12.9976C80.458 12.2439 81.2841 11.231 82.797 10.4688L82.8293 10.4533C82.755 10.5689 82.6776 10.683 82.5961 10.7943Z" fill="white"/>
</g>
<defs>
<clipPath id="clip0_3320_3801">
<rect width="90" height="17.5368" fill="white"/>
</clipPath>
</defs>
</svg>
