<svg width="32" height="33" viewBox="0 0 32 33" fill="none" xmlns="http://www.w3.org/2000/svg">
<path d="M15.3362 23.2146C15.4567 23.3372 15.5523 23.483 15.6176 23.6434C15.6828 23.8038 15.7164 23.9759 15.7164 24.1496C15.7164 24.3233 15.6828 24.4953 15.6176 24.6558C15.5523 24.8162 15.4567 24.962 15.3362 25.0846L14.7845 25.6478C14.199 26.2479 13.5027 26.7234 12.736 27.0471C11.9693 27.3707 11.1473 27.5359 10.3177 27.5332C9.06827 27.5336 7.84681 27.1556 6.80783 26.4471C5.76886 25.7386 4.95905 24.7314 4.48087 23.5529C4.00268 22.3744 3.87761 21.0776 4.12147 19.8265C4.36533 18.5754 4.96716 17.4263 5.85083 16.5245L9.59475 12.702C10.3911 11.8891 11.3858 11.3082 12.4758 11.0196C13.5659 10.731 14.7116 10.7451 15.7946 11.0604C16.8775 11.3758 17.8582 11.9809 18.6351 12.8131C19.412 13.6454 19.957 14.6746 20.2135 15.7941C20.256 15.9643 20.2648 16.1414 20.2393 16.3152C20.2139 16.4889 20.1547 16.6557 20.0654 16.8058C19.976 16.9559 19.8582 17.0862 19.7188 17.1892C19.5794 17.2922 19.4213 17.3658 19.2538 17.4056C19.0862 17.4455 18.9125 17.4507 18.743 17.4212C18.5734 17.3916 18.4113 17.3277 18.2661 17.2334C18.121 17.139 17.9958 17.016 17.8979 16.8716C17.7999 16.7272 17.7311 16.5643 17.6956 16.3925C17.5434 15.7316 17.2211 15.1243 16.762 14.6332C16.3028 14.1422 15.7236 13.7852 15.0841 13.5993C14.4446 13.4134 13.7681 13.4052 13.1245 13.5756C12.4808 13.746 11.8935 14.0889 11.4231 14.5687L7.67916 18.3911C7.15728 18.9235 6.80176 19.602 6.65756 20.3407C6.51336 21.0794 6.58695 21.8451 6.86904 22.5411C7.15112 23.2371 7.62903 23.8321 8.24231 24.2507C8.85559 24.6694 9.5767 24.893 10.3144 24.8932C10.8046 24.8947 11.2902 24.7968 11.7432 24.6054C12.1961 24.4139 12.6073 24.1326 12.953 23.7778L13.5035 23.2146C13.6236 23.0914 13.7664 22.9936 13.9237 22.9269C14.0809 22.8602 14.2495 22.8258 14.4198 22.8258C14.5901 22.8258 14.7587 22.8602 14.916 22.9269C15.0732 22.9936 15.216 23.0914 15.3362 23.2146ZM27.1497 7.42204C25.9648 6.21262 24.3578 5.5332 22.6823 5.5332C21.0068 5.5332 19.3999 6.21262 18.2149 7.42204L17.6644 7.98413C17.4215 8.23211 17.2851 8.56844 17.2851 8.91913C17.2851 9.26982 17.4215 9.60614 17.6644 9.85412C17.9073 10.1021 18.2367 10.2414 18.5802 10.2414C18.9237 10.2414 19.2531 10.1021 19.4959 9.85412L20.0476 9.29092C20.7476 8.57617 21.6971 8.17463 22.6872 8.17463C23.6772 8.17463 24.6267 8.57617 25.3268 9.29092C26.0268 10.0057 26.4201 10.9751 26.4201 11.9859C26.4201 12.9967 26.0268 13.9661 25.3268 14.6809L21.5764 18.4978C21.2307 18.8527 20.8195 19.134 20.3666 19.3254C19.9137 19.5169 19.4281 19.6147 18.9379 19.6132C18.097 19.6126 17.2809 19.322 16.6221 18.7885C15.9632 18.255 15.5002 17.5099 15.3081 16.6741C15.2304 16.333 15.0232 16.0375 14.732 15.8524C14.4409 15.6674 14.0897 15.608 13.7556 15.6874C13.4216 15.7667 13.1321 15.9783 12.9509 16.2756C12.7696 16.5728 12.7115 16.9314 12.7892 17.2725C13.1136 18.688 13.8969 19.9502 15.012 20.8542C16.127 21.7583 17.5086 22.2513 18.9325 22.2532H18.9379C19.7679 22.2555 20.5901 22.0898 21.3571 21.7656C22.124 21.4414 22.8203 20.9652 23.4058 20.3645L27.1497 16.5421C27.7363 15.9433 28.2016 15.2324 28.5191 14.45C28.8366 13.6676 29 12.8289 29 11.982C29 11.1352 28.8366 10.2965 28.5191 9.51414C28.2016 8.73172 27.7363 8.02082 27.1497 7.42204Z" fill="#949494"/>
</svg>
