<svg width="32" height="32" viewBox="0 0 32 32" fill="none" xmlns="http://www.w3.org/2000/svg">
<g clip-path="url(#clip0_3191_954)">
<path d="M26.6667 24C27.0065 24.0004 27.3334 24.1305 27.5805 24.3638C27.8276 24.5971 27.9763 24.9159 27.9962 25.2552C28.0161 25.5944 27.9058 25.9285 27.6876 26.1891C27.4695 26.4497 27.1601 26.6172 26.8227 26.6573L26.6667 26.6666H5.33333C4.99349 26.6663 4.66662 26.5361 4.41951 26.3028C4.17239 26.0696 4.02369 25.7507 4.00377 25.4115C3.98385 25.0722 4.09423 24.7381 4.31235 24.4775C4.53047 24.2169 4.83987 24.0495 5.17733 24.0093L5.33333 24H26.6667ZM26.6667 14.6666C27.0203 14.6666 27.3594 14.8071 27.6095 15.0572C27.8595 15.3072 28 15.6464 28 16C28 16.3536 27.8595 16.6927 27.6095 16.9428C27.3594 17.1928 27.0203 17.3333 26.6667 17.3333H5.33333C4.97971 17.3333 4.64057 17.1928 4.39052 16.9428C4.14048 16.6927 4 16.3536 4 16C4 15.6464 4.14048 15.3072 4.39052 15.0572C4.64057 14.8071 4.97971 14.6666 5.33333 14.6666H26.6667ZM26.6667 5.33331C27.0203 5.33331 27.3594 5.47379 27.6095 5.72384C27.8595 5.97389 28 6.31302 28 6.66665C28 7.02027 27.8595 7.35941 27.6095 7.60946C27.3594 7.8595 27.0203 7.99998 26.6667 7.99998H5.33333C4.97971 7.99998 4.64057 7.8595 4.39052 7.60946C4.14048 7.35941 4 7.02027 4 6.66665C4 6.31302 4.14048 5.97389 4.39052 5.72384C4.64057 5.47379 4.97971 5.33331 5.33333 5.33331H26.6667Z" fill="#949494"/>
</g>
<defs>
<clipPath id="clip0_3191_954">
<rect width="32" height="32" fill="white"/>
</clipPath>
</defs>
</svg>
