<svg width="32" height="32" viewBox="0 0 32 32" fill="none" xmlns="http://www.w3.org/2000/svg">
<path d="M16 2.6665C18.0698 2.66643 20.0591 3.46859 21.55 4.90446C23.0408 6.34032 23.917 8.29812 23.9947 10.3665L24 10.6665H25.3333C26.0061 10.6663 26.6541 10.9204 27.1474 11.3778C27.6407 11.8353 27.9429 12.4623 27.9933 13.1332L28 13.3332V26.6665C28.0002 27.3393 27.7461 27.9873 27.2887 28.4806C26.8312 28.9739 26.2042 29.276 25.5333 29.3265L25.3333 29.3332H6.66667C5.9939 29.3334 5.34591 29.0793 4.8526 28.6218C4.35929 28.1644 4.05712 27.5374 4.00667 26.8665L4 26.6665V13.3332C3.99979 12.6604 4.25388 12.0124 4.71133 11.5191C5.16878 11.0258 5.79579 10.7236 6.46667 10.6732L6.66667 10.6665H8C8 8.54477 8.84286 6.50994 10.3431 5.00965C11.8434 3.50936 13.8783 2.6665 16 2.6665ZM25.3333 13.3332H6.66667V26.6665H25.3333V13.3332ZM16 15.9998C16.5688 16 17.1226 16.1821 17.5806 16.5194C18.0386 16.8567 18.3767 17.3316 18.5456 17.8747C18.7144 18.4179 18.7052 19.0008 18.5193 19.5383C18.3333 20.0758 17.9804 20.5398 17.512 20.8625L17.3333 20.9758V22.6665C17.333 23.0063 17.2028 23.3332 16.9695 23.5803C16.7362 23.8274 16.4174 23.9762 16.0781 23.9961C15.7389 24.016 15.4048 23.9056 15.1442 23.6875C14.8836 23.4694 14.7161 23.16 14.676 22.8225L14.6667 22.6665V20.9758C14.1583 20.6823 13.761 20.2293 13.5364 19.6869C13.3118 19.1446 13.2724 18.5433 13.4243 17.9763C13.5762 17.4093 13.911 16.9083 14.3767 16.5509C14.8424 16.1936 15.413 15.9999 16 15.9998ZM16 5.33317C14.5855 5.33317 13.229 5.89507 12.2288 6.89527C11.2286 7.89546 10.6667 9.25202 10.6667 10.6665H21.3333C21.3333 9.25202 20.7714 7.89546 19.7712 6.89527C18.771 5.89507 17.4145 5.33317 16 5.33317Z" fill="#949494"/>
</svg>
