<svg width="32" height="32" viewBox="0 0 32 32" fill="none" xmlns="http://www.w3.org/2000/svg">
<path d="M21.3333 10.6667C22.3942 10.6667 23.4116 11.0882 24.1617 11.8383C24.9119 12.5885 25.3333 13.6059 25.3333 14.6667V25.3334C25.3333 26.3943 24.9119 27.4117 24.1617 28.1618C23.4116 28.912 22.3942 29.3334 21.3333 29.3334H9.33331C8.27245 29.3334 7.25503 28.912 6.50489 28.1618C5.75474 27.4117 5.33331 26.3943 5.33331 25.3334V14.6667C5.33331 13.6059 5.75474 12.5885 6.50489 11.8383C7.25503 11.0882 8.27245 10.6667 9.33331 10.6667V8.66675C9.33331 5.33341 12 2.66675 15.3333 2.66675C18.6666 2.66675 21.3333 5.33341 21.3333 8.66675V10.6667ZM9.33331 12.0001C8.62607 12.0001 7.94779 12.281 7.44769 12.7811C6.9476 13.2812 6.66665 13.9595 6.66665 14.6667V25.3334C6.66665 26.0407 6.9476 26.7189 7.44769 27.219C7.94779 27.7191 8.62607 28.0001 9.33331 28.0001H21.3333C22.0406 28.0001 22.7188 27.7191 23.2189 27.219C23.719 26.7189 24 26.0407 24 25.3334V14.6667C24 13.9595 23.719 13.2812 23.2189 12.7811C22.7188 12.281 22.0406 12.0001 21.3333 12.0001H9.33331ZM20 10.6667V8.66675C20 7.42907 19.5083 6.24209 18.6331 5.36692C17.758 4.49175 16.571 4.00008 15.3333 4.00008C14.0956 4.00008 12.9087 4.49175 12.0335 5.36692C11.1583 6.24209 10.6666 7.42907 10.6666 8.66675V10.6667H20ZM15.3333 18.6667C14.8029 18.6667 14.2942 18.8775 13.9191 19.2525C13.544 19.6276 13.3333 20.1363 13.3333 20.6667C13.3333 21.1972 13.544 21.7059 13.9191 22.081C14.2942 22.456 14.8029 22.6667 15.3333 22.6667C15.8637 22.6667 16.3725 22.456 16.7475 22.081C17.1226 21.7059 17.3333 21.1972 17.3333 20.6667C17.3333 20.1363 17.1226 19.6276 16.7475 19.2525C16.3725 18.8775 15.8637 18.6667 15.3333 18.6667ZM15.3333 17.3334C16.2174 17.3334 17.0652 17.6846 17.6903 18.3097C18.3155 18.9348 18.6666 19.7827 18.6666 20.6667C18.6666 21.5508 18.3155 22.3986 17.6903 23.0238C17.0652 23.6489 16.2174 24.0001 15.3333 24.0001C14.4493 24.0001 13.6014 23.6489 12.9763 23.0238C12.3512 22.3986 12 21.5508 12 20.6667C12 19.7827 12.3512 18.9348 12.9763 18.3097C13.6014 17.6846 14.4493 17.3334 15.3333 17.3334Z" fill="black"/>
</svg>
