<svg width="32" height="32" viewBox="0 0 32 32" fill="none" xmlns="http://www.w3.org/2000/svg">
<path fill-rule="evenodd" clip-rule="evenodd" d="M10.4537 11.588C10.76 11.1285 11.3809 11.0043 11.8404 11.3106L17.0714 14.798L22.3024 11.3106C22.762 11.0043 23.3828 11.1285 23.6892 11.588C23.9955 12.0475 23.8714 12.6684 23.4118 12.9747L17.6261 16.8319C17.2902 17.0558 16.8526 17.0558 16.5167 16.8319L10.731 12.9747C10.2715 12.6684 10.1473 12.0475 10.4537 11.588ZM0 14.0713C0 13.519 0.447715 13.0713 1 13.0713H6.14286C6.69514 13.0713 7.14286 13.519 7.14286 14.0713C7.14286 14.6235 6.69514 15.0713 6.14286 15.0713H1C0.447715 15.0713 0 14.6235 0 14.0713ZM2.57143 17.9284C2.57143 17.3761 3.01914 16.9284 3.57143 16.9284H6.14286C6.69514 16.9284 7.14286 17.3761 7.14286 17.9284C7.14286 18.4807 6.69514 18.9284 6.14286 18.9284H3.57143C3.01914 18.9284 2.57143 18.4807 2.57143 17.9284Z" fill="#949494"/>
<path fill-rule="evenodd" clip-rule="evenodd" d="M8.71401 8C8.29724 8 7.89754 8.16556 7.60284 8.46026C7.30814 8.75496 7.14258 9.15466 7.14258 9.57143V10.2143C7.14258 10.7666 6.69486 11.2143 6.14258 11.2143C5.59029 11.2143 5.14258 10.7666 5.14258 10.2143V9.57143C5.14258 8.62423 5.51885 7.71582 6.18863 7.04605C6.8584 6.37627 7.76681 6 8.71401 6H25.4283C26.3755 6 27.2839 6.37627 27.9537 7.04605C28.6234 7.71582 28.9997 8.62423 28.9997 9.57143V22.4286C28.9997 23.3758 28.6234 24.2842 27.9537 24.954C27.2839 25.6237 26.3755 26 25.4283 26H8.71401C7.7668 26 6.8584 25.6237 6.18863 24.954C5.51885 24.2842 5.14258 23.3758 5.14258 22.4286V21.7857C5.14258 21.2334 5.59029 20.7857 6.14258 20.7857C6.69486 20.7857 7.14258 21.2334 7.14258 21.7857V22.4286C7.14258 22.8453 7.30814 23.245 7.60284 23.5397C7.89754 23.8344 8.29724 24 8.71401 24H25.4283C25.8451 24 26.2448 23.8344 26.5395 23.5397C26.8342 23.245 26.9997 22.8453 26.9997 22.4286V9.57143C26.9997 9.15466 26.8342 8.75496 26.5395 8.46026C26.2448 8.16556 25.8451 8 25.4283 8H8.71401Z" fill="#949494"/>
</svg>
