<svg width="28" height="28" viewBox="0 0 28 28" fill="none" xmlns="http://www.w3.org/2000/svg">
<path d="M23.3334 20.4163C23.7828 20.4166 24.2149 20.5897 24.5402 20.8998C24.8655 21.21 25.0589 21.6333 25.0805 22.0822C25.1021 22.5311 24.9502 22.9711 24.6562 23.3111C24.3622 23.651 23.9487 23.8648 23.5014 23.9082L23.3334 23.9163H4.66675C4.21733 23.9161 3.78522 23.743 3.45996 23.4329C3.13471 23.1227 2.94123 22.6993 2.91964 22.2504C2.89804 21.8015 3.04997 21.3615 3.34395 21.0216C3.63793 20.6817 4.05143 20.4679 4.49875 20.4245L4.66675 20.4163H23.3334ZM23.3334 12.2497C23.7975 12.2497 24.2427 12.4341 24.5709 12.7622C24.899 13.0904 25.0834 13.5355 25.0834 13.9997C25.0834 14.4638 24.899 14.9089 24.5709 15.2371C24.2427 15.5653 23.7975 15.7497 23.3334 15.7497H4.66675C4.20262 15.7497 3.7575 15.5653 3.42931 15.2371C3.10112 14.9089 2.91675 14.4638 2.91675 13.9997C2.91675 13.5355 3.10112 13.0904 3.42931 12.7622C3.7575 12.4341 4.20262 12.2497 4.66675 12.2497H23.3334ZM23.3334 4.08301C23.7975 4.08301 24.2427 4.26738 24.5709 4.59557C24.899 4.92376 25.0834 5.36888 25.0834 5.83301C25.0834 6.29714 24.899 6.74226 24.5709 7.07045C24.2427 7.39863 23.7975 7.58301 23.3334 7.58301H4.66675C4.20262 7.58301 3.7575 7.39863 3.42931 7.07045C3.10112 6.74226 2.91675 6.29714 2.91675 5.83301C2.91675 5.36888 3.10112 4.92376 3.42931 4.59557C3.7575 4.26738 4.20262 4.08301 4.66675 4.08301H23.3334Z" fill="#949494"/>
</svg>
