<svg width="32" height="32" viewBox="0 0 32 32" fill="none" xmlns="http://www.w3.org/2000/svg">
<path d="M16.0001 26.6667C10.1201 26.6667 5.33341 21.8801 5.33341 16.0001C5.33341 10.1201 10.1201 5.33341 16.0001 5.33341C21.8801 5.33341 26.6667 10.1201 26.6667 16.0001C26.6667 21.8801 21.8801 26.6667 16.0001 26.6667ZM16.0001 2.66675C14.2491 2.66675 12.5153 3.01162 10.8976 3.68169C9.27996 4.35175 7.81011 5.33388 6.57199 6.57199C4.07151 9.07248 2.66675 12.4639 2.66675 16.0001C2.66675 19.5363 4.07151 22.9277 6.57199 25.4282C7.81011 26.6663 9.27996 27.6484 10.8976 28.3185C12.5153 28.9885 14.2491 29.3334 16.0001 29.3334C19.5363 29.3334 22.9277 27.9287 25.4282 25.4282C27.9287 22.9277 29.3334 19.5363 29.3334 16.0001C29.3334 14.2491 28.9885 12.5153 28.3185 10.8976C27.6484 9.27996 26.6663 7.81011 25.4282 6.57199C24.1901 5.33388 22.7202 4.35175 21.1025 3.68169C19.4849 3.01162 17.751 2.66675 16.0001 2.66675ZM9.33342 17.3334H22.6667V14.6667H9.33342" fill="#949494"/>
</svg>
