<svg width="32" height="32" viewBox="0 0 32 32" fill="none" xmlns="http://www.w3.org/2000/svg">
<path d="M5.5 13C5.04037 13 4.58525 13.0905 4.16061 13.2664C3.73597 13.4423 3.35013 13.7001 3.02513 14.0251C2.70012 14.3501 2.44231 14.736 2.26642 15.1606C2.09053 15.5852 2 16.0404 2 16.5C2 16.9596 2.09053 17.4148 2.26642 17.8394C2.44231 18.264 2.70012 18.6499 3.02513 18.9749C3.35013 19.2999 3.73597 19.5577 4.16061 19.7336C4.58525 19.9095 5.04037 20 5.5 20C6.42826 20 7.3185 19.6313 7.97487 18.9749C8.63125 18.3185 9 17.4283 9 16.5C9 15.5717 8.63125 14.6815 7.97487 14.0251C7.3185 13.3687 6.42826 13 5.5 13ZM5.5 15C5.89782 15 6.27936 15.158 6.56066 15.4393C6.84196 15.7206 7 16.1022 7 16.5C7 16.8978 6.84196 17.2794 6.56066 17.5607C6.27936 17.842 5.89782 18 5.5 18C5.10218 18 4.72064 17.842 4.43934 17.5607C4.15804 17.2794 4 16.8978 4 16.5C4 16.1022 4.15804 15.7206 4.43934 15.4393C4.72064 15.158 5.10218 15 5.5 15ZM16 13C16.4596 13 16.9148 13.0905 17.3394 13.2664C17.764 13.4423 18.1499 13.7001 18.4749 14.0251C18.7999 14.3501 19.0577 14.736 19.2336 15.1606C19.4095 15.5852 19.5 16.0404 19.5 16.5C19.5 16.9596 19.4095 17.4148 19.2336 17.8394C19.0577 18.264 18.7999 18.6499 18.4749 18.9749C18.1499 19.2999 17.764 19.5577 17.3394 19.7336C16.9148 19.9095 16.4596 20 16 20C15.0717 20 14.1815 19.6313 13.5251 18.9749C12.8687 18.3185 12.5 17.4283 12.5 16.5C12.5 15.5717 12.8687 14.6815 13.5251 14.0251C14.1815 13.3687 15.0717 13 16 13ZM16 15C15.6022 15 15.2206 15.158 14.9393 15.4393C14.658 15.7206 14.5 16.1022 14.5 16.5C14.5 16.8978 14.658 17.2794 14.9393 17.5607C15.2206 17.842 15.6022 18 16 18C16.3978 18 16.7794 17.842 17.0607 17.5607C17.342 17.2794 17.5 16.8978 17.5 16.5C17.5 16.1022 17.342 15.7206 17.0607 15.4393C16.7794 15.158 16.3978 15 16 15ZM26.5 13C26.9596 13 27.4148 13.0905 27.8394 13.2664C28.264 13.4423 28.6499 13.7001 28.9749 14.0251C29.2999 14.3501 29.5577 14.736 29.7336 15.1606C29.9095 15.5852 30 16.0404 30 16.5C30 16.9596 29.9095 17.4148 29.7336 17.8394C29.5577 18.264 29.2999 18.6499 28.9749 18.9749C28.6499 19.2999 28.264 19.5577 27.8394 19.7336C27.4148 19.9095 26.9596 20 26.5 20C25.5717 20 24.6815 19.6313 24.0251 18.9749C23.3687 18.3185 23 17.4283 23 16.5C23 15.5717 23.3687 14.6815 24.0251 14.0251C24.6815 13.3687 25.5717 13 26.5 13ZM26.5 15C26.1022 15 25.7206 15.158 25.4393 15.4393C25.158 15.7206 25 16.1022 25 16.5C25 16.8978 25.158 17.2794 25.4393 17.5607C25.7206 17.842 26.1022 18 26.5 18C26.8978 18 27.2794 17.842 27.5607 17.5607C27.842 17.2794 28 16.8978 28 16.5C28 16.1022 27.842 15.7206 27.5607 15.4393C27.2794 15.158 26.8978 15 26.5 15Z" fill="#949494"/>
</svg>
