<svg width="32" height="32" viewBox="0 0 32 32" fill="none" xmlns="http://www.w3.org/2000/svg">
<path d="M16.1666 23.8336C16.9181 23.8336 17.6388 24.1321 18.1701 24.6635C18.7015 25.1949 19 25.9155 19 26.667C19 27.4184 18.7015 28.1391 18.1701 28.6705C17.6388 29.2019 16.9181 29.5004 16.1666 29.5004C15.4152 29.5004 14.6945 29.2019 14.1631 28.6705C13.6318 28.1391 13.3333 27.4184 13.3333 26.667C13.3333 25.9155 13.6318 25.1949 14.1631 24.6635C14.6945 24.1321 15.4152 23.8336 16.1666 23.8336ZM16.1666 13.9168C16.9181 13.9168 17.6388 14.2153 18.1701 14.7467C18.7015 15.278 19 15.9987 19 16.7502C19 17.5016 18.7015 18.2223 18.1701 18.7537C17.6388 19.285 16.9181 19.5836 16.1666 19.5836C15.4152 19.5836 14.6945 19.285 14.1631 18.7537C13.6318 18.2223 13.3333 17.5016 13.3333 16.7502C13.3333 15.9987 13.6318 15.278 14.1631 14.7467C14.6945 14.2153 15.4152 13.9168 16.1666 13.9168ZM16.1666 4C16.9181 4 17.6388 4.29852 18.1701 4.82988C18.7015 5.36124 19 6.08192 19 6.83337C19 7.58483 18.7015 8.30551 18.1701 8.83687C17.6388 9.36823 16.9181 9.66675 16.1666 9.66675C15.4152 9.66675 14.6945 9.36823 14.1631 8.83687C13.6318 8.30551 13.3333 7.58483 13.3333 6.83337C13.3333 6.08192 13.6318 5.36124 14.1631 4.82988C14.6945 4.29852 15.4152 4 16.1666 4Z" fill="#949494"/>
</svg>
