<svg width="32" height="32" viewBox="0 0 32 32" fill="none" xmlns="http://www.w3.org/2000/svg">
<path d="M7.99999 18.3334C9.28865 18.3334 10.3333 17.2887 10.3333 16.0001C10.3333 14.7114 9.28865 13.6667 7.99999 13.6667C6.71133 13.6667 5.66666 14.7114 5.66666 16.0001C5.66666 17.2887 6.71133 18.3334 7.99999 18.3334Z" fill="black"/>
<path d="M16 18.3334C17.2887 18.3334 18.3333 17.2887 18.3333 16.0001C18.3333 14.7114 17.2887 13.6667 16 13.6667C14.7113 13.6667 13.6667 14.7114 13.6667 16.0001C13.6667 17.2887 14.7113 18.3334 16 18.3334Z" fill="black"/>
<path d="M24 18.3334C25.2887 18.3334 26.3333 17.2887 26.3333 16.0001C26.3333 14.7114 25.2887 13.6667 24 13.6667C22.7113 13.6667 21.6667 14.7114 21.6667 16.0001C21.6667 17.2887 22.7113 18.3334 24 18.3334Z" fill="black"/>
</svg>
