<svg width="24" height="26" viewBox="0 0 24 26" fill="none" xmlns="http://www.w3.org/2000/svg">
<path fill-rule="evenodd" clip-rule="evenodd" d="M2.66661 9.99984C2.66661 7.52448 3.64995 5.15051 5.40028 3.40017C7.15062 1.64983 9.52459 0.666504 11.9999 0.666504C14.4753 0.666504 16.8493 1.64983 18.5996 3.40017C20.35 5.15051 21.3333 7.52448 21.3333 9.99984V15.0185L23.7626 19.8772C23.8744 20.1008 23.9273 20.3493 23.916 20.5991C23.9048 20.8489 23.8299 21.0916 23.6984 21.3043C23.567 21.517 23.3833 21.6925 23.1649 21.8143C22.9465 21.936 22.7006 21.9999 22.4506 21.9998H17.1653C16.8687 23.1442 16.2005 24.1576 15.2656 24.8811C14.3307 25.6045 13.1821 25.9971 11.9999 25.9971C10.8178 25.9971 9.66915 25.6045 8.73426 24.8811C7.79938 24.1576 7.1312 23.1442 6.83462 21.9998H1.54928C1.29925 21.9999 1.05336 21.936 0.83497 21.8143C0.616578 21.6925 0.432932 21.517 0.301475 21.3043C0.170018 21.0916 0.0951144 20.8489 0.0838792 20.5991C0.0726439 20.3493 0.12545 20.1008 0.237281 19.8772L2.66661 15.0185V9.99984ZM9.69061 21.9998C9.92467 22.4052 10.2613 22.7418 10.6667 22.9758C11.072 23.2099 11.5319 23.3331 11.9999 23.3331C12.468 23.3331 12.9279 23.2099 13.3332 22.9758C13.7386 22.7418 14.0752 22.4052 14.3093 21.9998H9.69061ZM11.9999 3.33317C10.2318 3.33317 8.53615 4.03555 7.2859 5.28579C6.03566 6.53603 5.33328 8.23173 5.33328 9.99984V15.0185C5.33325 15.4323 5.23694 15.8404 5.05195 16.2105L3.49195 19.3332H20.5093L18.9493 16.2105C18.7639 15.8405 18.6671 15.4324 18.6666 15.0185V9.99984C18.6666 8.23173 17.9642 6.53603 16.714 5.28579C15.4638 4.03555 13.7681 3.33317 11.9999 3.33317Z" fill="#949494"/>
</svg>
