<svg width="24" height="24" viewBox="0 0 24 24" fill="none" xmlns="http://www.w3.org/2000/svg">
<path d="M4.38281 21.75C3.81716 21.75 3.27467 21.5253 2.87469 21.1253C2.47471 20.7253 2.25 20.1828 2.25 19.6172V4.38281C2.25 3.2055 3.2055 2.25 4.38281 2.25H14.7422C15.9195 2.25 16.875 3.2055 16.875 4.38281V19.6172C16.875 19.7204 16.8677 19.8219 16.8531 19.9219H19.6172C19.698 19.9219 19.7755 19.8898 19.8326 19.8326C19.8898 19.7755 19.9219 19.698 19.9219 19.6172V12.3473C19.9219 12.2972 19.9096 12.2479 19.886 12.2036C19.8624 12.1594 19.8283 12.1217 19.7866 12.0938L18.5008 11.2371C18.4009 11.1705 18.3152 11.0849 18.2484 10.9852C18.1816 10.8854 18.1351 10.7735 18.1116 10.6558C18.088 10.5381 18.0879 10.4169 18.1112 10.2992C18.1345 10.1814 18.1807 10.0694 18.2473 9.96956C18.3139 9.86969 18.3995 9.78391 18.4992 9.71712C18.599 9.65034 18.7109 9.60384 18.8286 9.5803C18.9463 9.55676 19.0674 9.55664 19.1852 9.57993C19.3029 9.60322 19.4149 9.64948 19.5148 9.71606L20.8006 10.5728C21.3941 10.9689 21.75 11.6344 21.75 12.3473V19.6172C21.75 20.1828 21.5253 20.7253 21.1253 21.1253C20.7253 21.5253 20.1828 21.75 19.6172 21.75H15.3516C15.2705 21.7495 15.1899 21.7388 15.1115 21.7183C14.9912 21.7394 14.8681 21.75 14.7422 21.75H11.0859C10.8435 21.75 10.611 21.6537 10.4396 21.4823C10.2682 21.3109 10.1719 21.0784 10.1719 20.8359V19.3125H8.95312V20.8359C8.95312 21.0784 8.85682 21.3109 8.6854 21.4823C8.51398 21.6537 8.28149 21.75 8.03906 21.75H4.38281ZM4.07812 19.6172C4.07812 19.7854 4.21463 19.9219 4.38281 19.9219H7.125V18.3984C7.125 18.156 7.2213 17.9235 7.39272 17.7521C7.56414 17.5807 7.79664 17.4844 8.03906 17.4844H11.0859C11.3284 17.4844 11.5609 17.5807 11.7323 17.7521C11.9037 17.9235 12 18.156 12 18.3984V19.9219H14.7422C14.823 19.9219 14.9005 19.8898 14.9576 19.8326C15.0148 19.7755 15.0469 19.698 15.0469 19.6172V4.38281C15.0469 4.302 15.0148 4.22451 14.9576 4.16737C14.9005 4.11023 14.823 4.07812 14.7422 4.07812H4.38281C4.302 4.07812 4.22451 4.11023 4.16737 4.16737C4.11023 4.22451 4.07812 4.302 4.07812 4.38281V19.6172ZM6.82031 9.5625H7.42969C7.67211 9.5625 7.90461 9.6588 8.07603 9.83022C8.24745 10.0016 8.34375 10.2341 8.34375 10.4766C8.34375 10.719 8.24745 10.9515 8.07603 11.1229C7.90461 11.2943 7.67211 11.3906 7.42969 11.3906H6.82031C6.57789 11.3906 6.34539 11.2943 6.17397 11.1229C6.00255 10.9515 5.90625 10.719 5.90625 10.4766C5.90625 10.2341 6.00255 10.0016 6.17397 9.83022C6.34539 9.6588 6.57789 9.5625 6.82031 9.5625ZM5.90625 6.82031C5.90625 6.57789 6.00255 6.34539 6.17397 6.17397C6.34539 6.00255 6.57789 5.90625 6.82031 5.90625H7.42969C7.67211 5.90625 7.90461 6.00255 8.07603 6.17397C8.24745 6.34539 8.34375 6.57789 8.34375 6.82031C8.34375 7.06274 8.24745 7.29523 8.07603 7.46665C7.90461 7.63807 7.67211 7.73437 7.42969 7.73438H6.82031C6.57789 7.73437 6.34539 7.63807 6.17397 7.46665C6.00255 7.29523 5.90625 7.06274 5.90625 6.82031ZM10.7812 10.4766C10.7812 10.2341 10.8776 10.0016 11.049 9.83022C11.2204 9.6588 11.4529 9.5625 11.6953 9.5625H12.3047C12.5471 9.5625 12.7796 9.6588 12.951 9.83022C13.1224 10.0016 13.2188 10.2341 13.2188 10.4766C13.2188 10.719 13.1224 10.9515 12.951 11.1229C12.7796 11.2943 12.5471 11.3906 12.3047 11.3906H11.6953C11.4529 11.3906 11.2204 11.2943 11.049 11.1229C10.8776 10.9515 10.7812 10.719 10.7812 10.4766ZM11.6953 5.90625H12.3047C12.5471 5.90625 12.7796 6.00255 12.951 6.17397C13.1224 6.34539 13.2188 6.57789 13.2188 6.82031C13.2188 7.06274 13.1224 7.29523 12.951 7.46665C12.7796 7.63807 12.5471 7.73437 12.3047 7.73438H11.6953C11.4529 7.73437 11.2204 7.63807 11.049 7.46665C10.8776 7.29523 10.7812 7.06274 10.7812 6.82031C10.7812 6.57789 10.8776 6.34539 11.049 6.17397C11.2204 6.00255 11.4529 5.90625 11.6953 5.90625ZM5.90625 14.1328C5.90625 13.8904 6.00255 13.6579 6.17397 13.4865C6.34539 13.3151 6.57789 13.2188 6.82031 13.2188H7.42969C7.67211 13.2188 7.90461 13.3151 8.07603 13.4865C8.24745 13.6579 8.34375 13.8904 8.34375 14.1328C8.34375 14.3752 8.24745 14.6077 8.07603 14.7792C7.90461 14.9506 7.67211 15.0469 7.42969 15.0469H6.82031C6.57789 15.0469 6.34539 14.9506 6.17397 14.7792C6.00255 14.6077 5.90625 14.3752 5.90625 14.1328ZM11.6953 13.2188H12.3047C12.5471 13.2188 12.7796 13.3151 12.951 13.4865C13.1224 13.6579 13.2188 13.8904 13.2188 14.1328C13.2188 14.3752 13.1224 14.6077 12.951 14.7792C12.7796 14.9506 12.5471 15.0469 12.3047 15.0469H11.6953C11.4529 15.0469 11.2204 14.9506 11.049 14.7792C10.8776 14.6077 10.7812 14.3752 10.7812 14.1328C10.7812 13.8904 10.8776 13.6579 11.049 13.4865C11.2204 13.3151 11.4529 13.2188 11.6953 13.2188Z" fill="#949494"/>
</svg>
