<svg width="32" height="32" viewBox="0 0 32 32" fill="none" xmlns="http://www.w3.org/2000/svg">
<path fill-rule="evenodd" clip-rule="evenodd" d="M20.3018 5.89983C20.8402 5.6768 21.4173 5.56201 22.0001 5.56201C22.5829 5.56201 23.16 5.6768 23.6984 5.89983C24.2368 6.12285 24.7261 6.44975 25.1382 6.86184C25.5502 7.27394 25.8771 7.76317 26.1002 8.3016C26.3232 8.84004 26.438 9.41712 26.438 9.99991C26.438 10.5827 26.3232 11.1598 26.1002 11.6982C25.8771 12.2367 25.5502 12.7259 25.1382 13.138L11.1382 27.138C11.0131 27.263 10.8436 27.3332 10.6667 27.3332H5.33341C4.96522 27.3332 4.66675 27.0348 4.66675 26.6666V21.3332C4.66675 21.1564 4.73699 20.9869 4.86201 20.8618L18.862 6.86184C19.2741 6.44975 19.7633 6.12285 20.3018 5.89983ZM18.0001 9.60939L6.00008 21.6094V25.9999H10.3906L22.3906 13.9999L18.0001 9.60939ZM23.3334 13.0571L18.9429 8.66658L19.8048 7.80465C20.0931 7.51637 20.4354 7.28769 20.812 7.13167C21.1887 6.97565 21.5924 6.89535 22.0001 6.89535C22.4078 6.89535 22.8115 6.97565 23.1881 7.13167C23.5648 7.28769 23.9071 7.51637 24.1953 7.80465C24.4836 8.09294 24.7123 8.43518 24.8683 8.81185C25.0243 9.18851 25.1047 9.59221 25.1047 9.99991C25.1047 10.4076 25.0243 10.8113 24.8683 11.188C24.7123 11.5646 24.4836 11.9069 24.1953 12.1952L23.3334 13.0571Z" fill="#949494"/>
</svg>
