<svg width="32" height="33" viewBox="0 0 32 33" fill="none" xmlns="http://www.w3.org/2000/svg">
<path d="M26 16C26.0007 16.2873 25.9294 16.5699 25.7932 16.8202C25.657 17.0706 25.4605 17.2803 25.2227 17.4289L10.4873 26.7509C10.2388 26.9082 9.9543 26.9941 9.66303 26.9997C9.37177 27.0053 9.08435 26.9304 8.83045 26.7827C8.57898 26.6372 8.36949 26.4252 8.22353 26.1683C8.07758 25.9114 8.00042 25.6189 8 25.321V6.67901C8.00042 6.38105 8.07758 6.08859 8.22353 5.8317C8.36949 5.5748 8.57898 5.36275 8.83045 5.21734C9.08435 5.06964 9.37177 4.99471 9.66303 5.00029C9.9543 5.00587 10.2388 5.09175 10.4873 5.24907L25.2227 14.5711C25.4605 14.7197 25.657 14.9294 25.7932 15.1798C25.9294 15.4301 26.0007 15.7127 26 16Z" fill="#949494"/>
</svg>
