<svg width="32" height="32" viewBox="0 0 32 32" fill="none" xmlns="http://www.w3.org/2000/svg">
<path d="M32 16C32 24.8364 24.8364 32 16 32C7.16444 32 0 24.8364 0 16C0 7.16444 7.16444 0 16 0C24.8364 0 32 7.16444 32 16Z" fill="#FFCC4D"/>
<path d="M10.2222 17.7779C11.4495 17.7779 12.4444 16.385 12.4444 14.6668C12.4444 12.9486 11.4495 11.5557 10.2222 11.5557C8.99492 11.5557 8 12.9486 8 14.6668C8 16.385 8.99492 17.7779 10.2222 17.7779Z" fill="#664500"/>
<path d="M21.7779 17.7779C23.0052 17.7779 24.0001 16.385 24.0001 14.6668C24.0001 12.9486 23.0052 11.5557 21.7779 11.5557C20.5506 11.5557 19.5557 12.9486 19.5557 14.6668C19.5557 16.385 20.5506 17.7779 21.7779 17.7779Z" fill="#664500"/>
<path d="M20.8756 24.7814C20.8658 24.7422 19.8578 20.8889 16 20.8889C12.1422 20.8889 11.1342 24.7422 11.1245 24.7814C11.1029 24.8734 11.1113 24.9699 11.1484 25.0569C11.1855 25.1439 11.2494 25.2167 11.3307 25.2649C11.4133 25.313 11.5091 25.3338 11.6042 25.3242C11.6994 25.3146 11.7891 25.2752 11.8605 25.2116C11.8685 25.2054 12.7609 24.4445 16 24.4445C19.1911 24.4445 20.104 25.1822 20.1387 25.2116C20.2077 25.2771 20.2958 25.3188 20.3902 25.3304C20.4846 25.3421 20.5803 25.3232 20.6631 25.2765C20.7479 25.2286 20.8145 25.1542 20.8529 25.0648C20.8913 24.9753 20.8993 24.8758 20.8756 24.7814Z" fill="#664500"/>
<path d="M8.88889 26.6667C8.88889 29.1218 6.89956 31.1112 4.44444 31.1112C1.98933 31.1112 0 29.1218 0 26.6667C0 24.2116 3.55556 17.7778 4.44444 17.7778C5.33333 17.7778 8.88889 24.2116 8.88889 26.6667Z" fill="#5DADEC"/>
<path d="M26.6666 11.5555C21.7297 11.5555 19.7314 7.67368 19.6488 7.50835C19.5428 7.2977 19.5249 7.0536 19.5989 6.82972C19.6729 6.60584 19.8328 6.42054 20.0434 6.31457C20.2541 6.2086 20.4982 6.19065 20.7221 6.26466C20.946 6.33868 21.1313 6.49859 21.2372 6.70923C21.3039 6.83901 22.8559 9.77768 26.6666 9.77768C26.9023 9.77768 27.1284 9.87133 27.2951 10.038C27.4618 10.2047 27.5554 10.4308 27.5554 10.6666C27.5554 10.9023 27.4618 11.1284 27.2951 11.2951C27.1284 11.4618 26.9023 11.5555 26.6666 11.5555ZM5.33322 11.5555C5.09748 11.5555 4.87138 11.4618 4.70469 11.2951C4.53799 11.1284 4.44434 10.9023 4.44434 10.6666C4.44434 10.4308 4.53799 10.2047 4.70469 10.038C4.87138 9.87133 5.09748 9.77768 5.33322 9.77768C9.85145 9.77768 10.663 7.00435 10.6959 6.88612C10.8248 6.41679 11.3092 6.13235 11.7794 6.2559C12.2497 6.37946 12.5359 6.85412 12.4177 7.32701C12.3741 7.49946 11.2923 11.5555 5.33322 11.5555Z" fill="#664500"/>
</svg>
