<svg width="32" height="32" viewBox="0 0 32 32" fill="none" xmlns="http://www.w3.org/2000/svg">
<path d="M12.6667 5.33325C14.9652 5.33325 17.1696 6.24634 18.7949 7.87166C20.4202 9.49697 21.3333 11.7014 21.3333 13.9999C21.3333 16.1599 20.5467 18.1333 19.24 19.6399L26.7733 27.1733L25.8267 28.1199L18.2933 20.5866C16.727 21.9307 14.7307 22.6687 12.6667 22.6666C10.3681 22.6666 8.16372 21.7535 6.53841 20.1282C4.91309 18.5029 4 16.2985 4 13.9999C4 11.7014 4.91309 9.49697 6.53841 7.87166C8.16372 6.24634 10.3681 5.33325 12.6667 5.33325ZM12.6667 6.66659C10.7217 6.66659 8.85648 7.4392 7.48122 8.81447C6.10595 10.1897 5.33333 12.055 5.33333 13.9999C5.33333 15.9448 6.10595 17.8101 7.48122 19.1854C8.85648 20.5606 10.7217 21.3333 12.6667 21.3333C13.6297 21.3333 14.5833 21.1436 15.473 20.775C16.3627 20.4065 17.1712 19.8663 17.8521 19.1854C18.5331 18.5044 19.0732 17.696 19.4418 16.8063C19.8103 15.9165 20 14.9629 20 13.9999C20 13.0369 19.8103 12.0833 19.4418 11.1936C19.0732 10.3039 18.5331 9.49543 17.8521 8.81447C17.1712 8.13351 16.3627 7.59334 15.473 7.2248C14.5833 6.85627 13.6297 6.66659 12.6667 6.66659Z" fill="black"/>
</svg>
