<svg width="32" height="32" viewBox="0 0 32 32" fill="none" xmlns="http://www.w3.org/2000/svg">
<path d="M24.0414 22.1561L29.7521 27.8654L27.8654 29.7521L22.1561 24.0414C20.0317 25.7444 17.3894 26.6706 14.6667 26.6667C8.04275 26.6667 2.66675 21.2907 2.66675 14.6667C2.66675 8.04275 8.04275 2.66675 14.6667 2.66675C21.2907 2.66675 26.6667 8.04275 26.6667 14.6667C26.6706 17.3894 25.7444 20.0317 24.0414 22.1561ZM21.3667 21.1667C23.0585 19.4264 24.0035 17.0939 24.0001 14.6667C24.0001 9.51075 19.8227 5.33341 14.6667 5.33341C9.51075 5.33341 5.33341 9.51075 5.33341 14.6667C5.33341 19.8227 9.51075 24.0001 14.6667 24.0001C17.0939 24.0035 19.4264 23.0585 21.1667 21.3667L21.3667 21.1667Z" fill="#949494"/>
</svg>
