<svg width="27" height="28" viewBox="0 0 27 28" fill="none" xmlns="http://www.w3.org/2000/svg">
<path d="M24.5333 14.8802C24.3195 14.6369 24.2016 14.3241 24.2016 14.0002C24.2016 13.6763 24.3195 13.3635 24.5333 13.1202L26.2399 11.2002C26.428 10.9904 26.5448 10.7265 26.5735 10.4462C26.6023 10.1659 26.5415 9.88377 26.3999 9.64019L23.7333 5.02685C23.5931 4.78355 23.3798 4.59069 23.1236 4.47577C22.8674 4.36085 22.5815 4.32973 22.3066 4.38685L19.7999 4.89352C19.481 4.95942 19.1489 4.9063 18.8665 4.74419C18.584 4.58207 18.3706 4.32216 18.2666 4.01352L17.4533 1.57352C17.3638 1.30869 17.1934 1.07867 16.9661 0.915975C16.7388 0.753278 16.4661 0.666131 16.1866 0.666852H10.8533C10.5625 0.651676 10.2748 0.732087 10.034 0.895804C9.79327 1.05952 9.61272 1.29754 9.51994 1.57352L8.77328 4.01352C8.66928 4.32216 8.45591 4.58207 8.17343 4.74419C7.89095 4.9063 7.5589 4.95942 7.23994 4.89352L4.66661 4.38685C4.40601 4.35003 4.14034 4.39115 3.90307 4.50504C3.6658 4.61893 3.46755 4.80049 3.33328 5.02685L0.66661 9.64019C0.52149 9.88105 0.456239 10.1616 0.480187 10.4418C0.504134 10.722 0.616053 10.9874 0.799943 11.2002L2.49328 13.1202C2.70704 13.3635 2.82492 13.6763 2.82492 14.0002C2.82492 14.3241 2.70704 14.6369 2.49328 14.8802L0.799943 16.8002C0.616053 17.0129 0.504134 17.2784 0.480187 17.5586C0.456239 17.8387 0.52149 18.1193 0.66661 18.3602L3.33328 22.9735C3.47341 23.2168 3.68677 23.4097 3.94295 23.5246C4.19912 23.6395 4.48504 23.6706 4.75994 23.6135L7.26661 23.1069C7.58557 23.0409 7.91761 23.0941 8.20009 23.2562C8.48257 23.4183 8.69595 23.6782 8.79994 23.9869L9.61328 26.4269C9.70605 26.7028 9.8866 26.9408 10.1274 27.1046C10.3681 27.2683 10.6559 27.3487 10.9466 27.3335H16.2799C16.5595 27.3342 16.8322 27.2471 17.0594 27.0844C17.2867 26.9217 17.4572 26.6917 17.5466 26.4269L18.3599 23.9869C18.4639 23.6782 18.6773 23.4183 18.9598 23.2562C19.2423 23.0941 19.5743 23.0409 19.8933 23.1069L22.3999 23.6135C22.6748 23.6706 22.9608 23.6395 23.2169 23.5246C23.4731 23.4097 23.6865 23.2168 23.8266 22.9735L26.4933 18.3602C26.6348 18.1166 26.6956 17.8344 26.6669 17.5542C26.6381 17.2739 26.5213 17.01 26.3333 16.8002L24.5333 14.8802ZM22.5466 16.6669L23.6133 17.8669L21.9066 20.8269L20.3333 20.5069C19.373 20.3106 18.374 20.4737 17.5261 20.9653C16.6781 21.4568 16.0401 22.2426 15.7333 23.1735L15.2266 24.6669H11.8133L11.3333 23.1469C11.0264 22.216 10.3885 21.4302 9.54048 20.9386C8.69251 20.447 7.69357 20.2839 6.73328 20.4802L5.15994 20.8002L3.42661 17.8535L4.49328 16.6535C5.14922 15.9202 5.51185 14.9708 5.51185 13.9869C5.51185 13.0029 5.14922 12.0535 4.49328 11.3202L3.42661 10.1202L5.13328 7.18685L6.70661 7.50685C7.6669 7.70315 8.66585 7.54003 9.51382 7.04845C10.3618 6.55687 10.9997 5.77106 11.3066 4.84019L11.8133 3.33352H15.2266L15.7333 4.85352C16.0401 5.7844 16.6781 6.57021 17.5261 7.06178C18.374 7.55336 19.373 7.71648 20.3333 7.52019L21.9066 7.20019L23.6133 10.1602L22.5466 11.3602C21.898 12.0919 21.5399 13.0358 21.5399 14.0135C21.5399 14.9913 21.898 15.9352 22.5466 16.6669ZM13.5199 8.66685C12.4651 8.66685 11.434 8.97965 10.5569 9.56568C9.67984 10.1517 8.99625 10.9847 8.59259 11.9592C8.18892 12.9337 8.0833 14.0061 8.28909 15.0407C8.49488 16.0752 9.00283 17.0255 9.74871 17.7714C10.4946 18.5173 11.4449 19.0253 12.4795 19.231C13.514 19.4368 14.5864 19.3312 15.5609 18.9275C16.5355 18.5239 17.3684 17.8403 17.9544 16.9632C18.5405 16.0862 18.8533 15.055 18.8533 14.0002C18.8533 12.5857 18.2914 11.2291 17.2912 10.2289C16.291 9.22876 14.9344 8.66685 13.5199 8.66685ZM13.5199 16.6669C12.9925 16.6669 12.477 16.5105 12.0384 16.2174C11.5999 15.9244 11.2581 15.5079 11.0563 15.0207C10.8544 14.5334 10.8016 13.9972 10.9045 13.4799C11.0074 12.9627 11.2614 12.4875 11.6343 12.1146C12.0073 11.7416 12.4824 11.4877 12.9997 11.3848C13.517 11.2819 14.0532 11.3347 14.5404 11.5365C15.0277 11.7383 15.4442 12.0801 15.7372 12.5187C16.0302 12.9572 16.1866 13.4728 16.1866 14.0002C16.1866 14.7074 15.9057 15.3857 15.4056 15.8858C14.9055 16.3859 14.2272 16.6669 13.5199 16.6669Z" fill="#949494"/>
</svg>
