<svg width="32" height="32" viewBox="0 0 32 32" fill="none" xmlns="http://www.w3.org/2000/svg">
<path d="M26.12 20.6667L23.6933 18.9333C24.0933 17.4933 24.12 15.9333 23.6933 14.3733L26.12 12.6667L24.1867 9.33333L21.48 10.56C20.4267 9.49333 19.0933 8.66667 17.5333 8.28L17.2667 5.33333H13.4L13.1333 8.28C11.5733 8.66667 10.24 9.49333 9.18667 10.56L6.48 9.33333L4.54667 12.6667L6.97334 14.3733C6.54667 15.9333 6.57334 17.4933 6.97334 18.9333L4.54667 20.6667L6.48 24L9.18667 22.76C10.24 23.8133 11.5733 24.6133 13.1333 25.0267L13.4 28H17.2667L17.5333 25.0267C19.0933 24.6133 20.4267 23.8133 21.48 22.76L24.1867 24L26.12 20.6667ZM18 4C18.36 4 18.6667 4.26667 18.6667 4.61333L18.9067 7.33333C19.92 7.70667 20.8267 8.25333 21.64 8.90667L24.1067 7.74667C24.4133 7.58667 24.8 7.69333 24.9867 8L27.6533 12.6667C27.84 12.9467 27.7333 13.3333 27.44 13.5333L25.2133 15.0933C25.3867 16.16 25.3733 17.2133 25.2133 18.24L27.44 19.8C27.7333 20 27.84 20.3867 27.6533 20.6667L24.9867 25.3333C24.8 25.6133 24.4133 25.72 24.1067 25.56L21.64 24.4133C20.8267 25.0667 19.92 25.6 18.9067 26L18.6667 28.6667C18.6667 29.0533 18.36 29.3333 18 29.3333H12.6667C12.4899 29.3333 12.3203 29.2631 12.1953 29.1381C12.0702 29.013 12 28.8435 12 28.6667L11.76 26C10.7467 25.6 9.84 25.0667 9.02667 24.4133L6.56 25.56C6.25334 25.72 5.86667 25.6133 5.68 25.3333L3.01334 20.6667C2.82667 20.3867 2.93334 20 3.22667 19.8L5.45334 18.24C5.29334 17.2133 5.28 16.16 5.45334 15.0933L3.22667 13.5333C2.93334 13.3333 2.82667 12.9467 3.01334 12.6667L5.68 8C5.86667 7.69333 6.25334 7.58667 6.56 7.74667L9.02667 8.90667C9.84 8.25333 10.7467 7.70667 11.76 7.33333L12 4.61333C12 4.26667 12.3067 4 12.6667 4H18ZM15.3333 12C16.571 12 17.758 12.4917 18.6332 13.3668C19.5083 14.242 20 15.429 20 16.6667C20 17.9043 19.5083 19.0913 18.6332 19.9665C17.758 20.8417 16.571 21.3333 15.3333 21.3333C14.0957 21.3333 12.9087 20.8417 12.0335 19.9665C11.1583 19.0913 10.6667 17.9043 10.6667 16.6667C10.6667 15.429 11.1583 14.242 12.0335 13.3668C12.9087 12.4917 14.0957 12 15.3333 12ZM15.3333 13.3333C14.4493 13.3333 13.6014 13.6845 12.9763 14.3096C12.3512 14.9348 12 15.7826 12 16.6667C12 17.5507 12.3512 18.3986 12.9763 19.0237C13.6014 19.6488 14.4493 20 15.3333 20C16.2174 20 17.0652 19.6488 17.6904 19.0237C18.3155 18.3986 18.6667 17.5507 18.6667 16.6667C18.6667 15.7826 18.3155 14.9348 17.6904 14.3096C17.0652 13.6845 16.2174 13.3333 15.3333 13.3333Z" fill="black"/>
</svg>
