<svg width="24" height="24" viewBox="0 0 24 24" fill="none" xmlns="http://www.w3.org/2000/svg">
<path d="M4.10565 11.1998C4.10565 11.1998 3.4135 9.09438 7.43968 6.21056C9.64546 4.63149 11.3341 4.23364 12.4115 4.19905C12.4658 5.20497 12.3212 6.2117 11.9856 7.16443C12.6782 6.93885 13.3988 6.80502 14.1279 6.76657C14.2877 5.77811 14.1863 4.97745 13.7781 4.38932C13.3158 3.74563 12.6795 3.23928 11.9399 2.92642C11.9399 2.92642 10.1652 2.11093 6.2658 4.61915C3.16249 6.61831 2.52612 8.72866 2.4171 9.45517C2.37912 9.65799 2.40473 9.86725 2.49062 10.0557C2.6757 10.4164 3.48194 10.9527 4.10565 11.1998Z" fill="#949494"/>
<path d="M10.154 14.3234C11.2944 12.9172 12.2926 11.409 13.1349 9.81937C14.2252 9.46318 15.3699 9.28688 16.5209 9.2979C16.6389 10.0225 16.6227 10.7616 16.4731 11.4808C17.1053 11.3316 17.7502 11.2374 18.4 11.1994C18.3868 10.5718 18.1743 9.96311 17.7912 9.45556C17.3291 8.89753 16.7637 8.42711 16.1234 8.06823C16.1234 8.06823 13.6758 6.56207 7.37434 10.6852C1.6339 14.4277 0.891821 17.748 0.803781 18.3083C0.798744 18.3339 0.798744 18.3603 0.803781 18.3858C0.803781 18.3858 0.816358 18.4052 0.821395 18.4174C1.04287 18.85 1.37755 19.2195 1.79238 19.4895C1.87508 19.5475 1.97229 19.5836 2.07411 19.5938C3.20862 19.7004 6.90142 18.4149 10.154 14.3234ZM2.88665 17.4764C3.83752 16.0962 5.54305 14.1584 8.49881 12.1405C9.07487 11.7476 9.62827 11.4129 10.159 11.117C9.60191 11.9486 8.97154 12.7325 8.27492 13.4599C6.71091 15.0656 4.89212 16.4213 2.88665 17.4764Z" fill="#949494"/>
<path d="M23.4 14.2167C23.3637 13.9169 23.2612 13.6292 23.0999 13.3755C22.9385 13.1218 22.7228 12.9086 22.4688 12.7518C22.4688 12.7518 19.3218 10.792 13.9488 13.2008C8.5759 15.6096 7.52354 18.8957 7.40493 19.6832C7.39493 19.7365 7.4002 19.7918 7.42007 19.8422C7.43379 19.8733 7.45256 19.902 7.4756 19.9268H7.4428C7.76913 20.522 8.30452 20.9702 8.94185 21.1812C8.94185 21.1812 12.0359 21.7483 15.9173 16.646C16.6384 15.7266 17.2327 14.7118 17.6839 13.6292C21.0706 12.9366 23.4 14.2167 23.4 14.2167ZM14.3955 15.2658C12.7905 17.5155 11.0895 18.6775 9.76708 19.2778C10.5545 17.9055 12.0385 16.061 14.7564 14.6732L14.8144 14.6451C14.6808 14.8553 14.5419 15.0631 14.3955 15.2658Z" fill="#949494"/>
</svg>
