<svg width="20" height="20" viewBox="0 0 20 20" fill="none" xmlns="http://www.w3.org/2000/svg">
<path opacity="0.2" fill-rule="evenodd" clip-rule="evenodd" d="M11.5 15.9L6.865 18L7.398 12.87L4 9.04L8.965 7.97L11.5 3.5L14.035 7.969L19 9.039L15.602 12.87L16.135 18L11.5 15.9Z" fill="#9D96EA" stroke="#9D96EA" stroke-linecap="round" stroke-linejoin="round"/>
<path fill-rule="evenodd" clip-rule="evenodd" d="M5.57083 17.4555L9.99983 15.4485L14.4288 17.4555C14.509 17.4919 14.5973 17.5064 14.6849 17.4977C14.7725 17.489 14.8563 17.4574 14.9277 17.4059C14.9991 17.3545 15.0557 17.2851 15.0917 17.2048C15.1278 17.1244 15.1419 17.036 15.1328 16.9485L14.6228 12.0385L17.8738 8.37047C17.9316 8.30511 17.9713 8.22576 17.989 8.14031C18.0066 8.05485 18.0016 7.96627 17.9744 7.88336C17.9472 7.80045 17.8988 7.7261 17.8339 7.6677C17.7691 7.6093 17.6901 7.56889 17.6048 7.55047L12.8598 6.52747L10.4348 2.25347C10.3912 2.17653 10.328 2.11252 10.2516 2.06799C10.1751 2.02346 10.0883 2 9.99983 2C9.91138 2 9.82452 2.02346 9.7481 2.06799C9.67168 2.11252 9.60844 2.17653 9.56483 2.25347L7.13983 6.52747L2.39483 7.55047C2.30946 7.56875 2.23036 7.60907 2.1654 7.66741C2.10045 7.72575 2.0519 7.80009 2.02459 7.88302C1.99729 7.96595 1.99217 8.05458 2.00976 8.1401C2.02734 8.22562 2.06702 8.30505 2.12483 8.37047L5.37783 12.0375L4.86783 16.9485C4.85882 17.0359 4.87302 17.1242 4.90899 17.2044C4.94497 17.2845 5.00144 17.3538 5.07273 17.4053C5.14401 17.4567 5.22759 17.4884 5.31504 17.4972C5.40249 17.506 5.49072 17.4916 5.57083 17.4555ZM9.79383 14.4455L5.95183 16.1855L6.39483 11.9225C6.40211 11.8534 6.39493 11.7836 6.37376 11.7175C6.35258 11.6514 6.31787 11.5904 6.27183 11.5385L3.44183 8.34747L7.56983 7.45747C7.63879 7.44269 7.70385 7.41349 7.76072 7.37178C7.8176 7.33007 7.865 7.2768 7.89983 7.21547L9.99983 3.51347L12.0998 7.21547C12.1347 7.2768 12.1821 7.33007 12.2389 7.37178C12.2958 7.41349 12.3609 7.44269 12.4298 7.45747L16.5578 8.34747L13.7278 11.5385C13.6818 11.5904 13.6471 11.6514 13.6259 11.7175C13.6047 11.7836 13.5976 11.8534 13.6048 11.9225L14.0478 16.1855L10.2058 14.4455C10.1411 14.4162 10.0709 14.4011 9.99983 14.4011C9.92879 14.4011 9.85856 14.4162 9.79383 14.4455Z" fill="#9D96EA"/>
</svg>
