<svg width="32" height="32" viewBox="0 0 32 32" fill="none" xmlns="http://www.w3.org/2000/svg">
<path d="M20.8267 28.16C20.0767 28.9091 19.06 29.3298 18 29.3298C16.94 29.3298 15.9233 28.9091 15.1733 28.16L4.06666 17.3333C3.26666 16.6 2.66666 15.5067 2.66666 14.3333V8C2.66666 6.93913 3.08808 5.92172 3.83823 5.17157C4.58838 4.42143 5.60579 4 6.66666 4H13C14.1733 4 15.2667 4.6 16 5.4L26.76 16.5733C27.5091 17.3233 27.9298 18.34 27.9298 19.4C27.9298 20.46 27.5091 21.4767 26.76 22.2267L20.8267 28.16ZM19.88 27.2133L25.8133 21.28C26.8533 20.24 26.8533 18.5467 25.8133 17.5067L14.8133 6.10667C14.3733 5.6 13.7333 5.33333 13 5.33333L6.62666 5.29333C5.15999 5.29333 3.99999 6.53333 3.99999 8V14.3333C3.99999 15.0667 4.26666 15.7067 4.77332 16.1467L16.1067 27.2133C17.1467 28.2533 18.84 28.2533 19.88 27.2133ZM8.66666 6.66667C9.55071 6.66667 10.3986 7.01786 11.0237 7.64298C11.6488 8.2681 12 9.11595 12 10C12 10.8841 11.6488 11.7319 11.0237 12.357C10.3986 12.9821 9.55071 13.3333 8.66666 13.3333C7.7826 13.3333 6.93476 12.9821 6.30963 12.357C5.68451 11.7319 5.33332 10.8841 5.33332 10C5.33332 9.11595 5.68451 8.2681 6.30963 7.64298C6.93476 7.01786 7.7826 6.66667 8.66666 6.66667ZM8.66666 8C8.13622 8 7.62752 8.21071 7.25244 8.58579C6.87737 8.96086 6.66666 9.46957 6.66666 10C6.66666 10.5304 6.87737 11.0391 7.25244 11.4142C7.62752 11.7893 8.13622 12 8.66666 12C9.19709 12 9.7058 11.7893 10.0809 11.4142C10.4559 11.0391 10.6667 10.5304 10.6667 10C10.6667 9.46957 10.4559 8.96086 10.0809 8.58579C9.7058 8.21071 9.19709 8 8.66666 8Z" fill="black"/>
</svg>
