<svg width="32" height="32" viewBox="0 0 32 32" fill="none" xmlns="http://www.w3.org/2000/svg">
<path d="M4 6.66667C4 5.93333 4.26089 5.30578 4.78267 4.784C5.30444 4.26222 5.93244 4.00089 6.66667 4L25.3333 4C26.0667 4 26.6942 4.26133 27.216 4.784C27.7378 5.30667 27.9991 5.93422 28 6.66667V25.3333C28 26.0667 27.7387 26.6947 27.216 27.2173C26.6933 27.74 26.0658 28.0009 25.3333 28H6.66667C5.93333 28 5.30533 27.7391 4.78267 27.2173C4.26 26.6956 3.99911 26.0676 4 25.3333V6.66667ZM6.66667 13.3333L14.6667 13.3333V6.66667L6.66667 6.66667V13.3333ZM6.66667 16V25.3333H14.6667L14.6667 16H6.66667ZM17.3333 6.66667V25.3333H25.3333V6.66667H17.3333Z" fill="#949494"/>
</svg>
