<svg width="24" height="24" viewBox="0 0 24 24" fill="none" xmlns="http://www.w3.org/2000/svg">
<path fill-rule="evenodd" clip-rule="evenodd" d="M8.81725 3H15.9327C16.708 3 17.3765 3 17.912 3.07175C18.4851 3.14875 19.0355 3.32287 19.4809 3.76912C19.9271 4.21537 20.1012 4.76487 20.1782 5.338C20.25 5.8735 20.25 6.542 20.25 7.31725V8.20625C20.25 8.43831 20.1578 8.66087 19.9937 8.82497C19.8296 8.98906 19.6071 9.08125 19.375 9.08125C19.1429 9.08125 18.9204 8.98906 18.7563 8.82497C18.5922 8.66087 18.5 8.43831 18.5 8.20625V7.375C18.5 6.52537 18.4983 5.97588 18.444 5.57163C18.3924 5.19188 18.3101 5.07288 18.2436 5.00638C18.1771 4.93988 18.0581 4.85763 17.6784 4.806C17.275 4.75175 16.7246 4.75 15.875 4.75H13.25V19.625C13.25 19.8571 13.1578 20.0796 12.9937 20.2437C12.8296 20.4078 12.6071 20.5 12.375 20.5C12.1429 20.5 11.9204 20.4078 11.7563 20.2437C11.5922 20.0796 11.5 19.8571 11.5 19.625V4.75H8.875C8.02537 4.75 7.47588 4.75175 7.07163 4.806C6.69188 4.85763 6.57288 4.93988 6.50638 5.00638C6.43988 5.07288 6.35763 5.19188 6.306 5.57163C6.25175 5.975 6.25 6.52537 6.25 7.375V8.20625C6.25 8.43831 6.15781 8.66087 5.99372 8.82497C5.82962 8.98906 5.60706 9.08125 5.375 9.08125C5.14294 9.08125 4.92038 8.98906 4.75628 8.82497C4.59219 8.66087 4.5 8.43831 4.5 8.20625V7.31725C4.5 6.542 4.5 5.8735 4.57175 5.338C4.64875 4.76487 4.82287 4.2145 5.26912 3.76912C5.71537 3.32287 6.26487 3.14875 6.838 3.07175C7.3735 3 8.042 3 8.81725 3Z" fill="#949494"/>
<path d="M7.99998 19.625H16.75" stroke="#949494" stroke-width="2.66667" stroke-linecap="round" stroke-linejoin="round"/>
</svg>
