<svg width="32" height="32" viewBox="0 0 32 32" fill="none" xmlns="http://www.w3.org/2000/svg">
<path fill-rule="evenodd" clip-rule="evenodd" d="M11.4477 3.4478C11.9478 2.9477 12.6261 2.66675 13.3333 2.66675H18.6667C19.3739 2.66675 20.0522 2.9477 20.5523 3.4478C21.0524 3.94789 21.3333 4.62617 21.3333 5.33341V8.00008H25.3178C25.3271 7.99998 25.3365 7.99998 25.3459 8.00008H26.6667C27.403 8.00008 28 8.59704 28 9.33342C28 10.0698 27.403 10.6667 26.6667 10.6667H26.5602L25.3329 25.3945C25.317 26.4333 24.8975 27.4261 24.1618 28.1618C23.4116 28.912 22.3942 29.3334 21.3333 29.3334H10.6667C9.6058 29.3334 8.58838 28.912 7.83824 28.1618C7.10249 27.4261 6.68297 26.4332 6.66713 25.3945L5.43982 10.6667H5.33333C4.59695 10.6667 4 10.0698 4 9.33342C4 8.59704 4.59695 8.00008 5.33333 8.00008H6.65407C6.66348 7.99998 6.67287 7.99998 6.68224 8.00008H10.6667V5.33341C10.6667 4.62617 10.9476 3.94789 11.4477 3.4478ZM8.11573 10.6667L9.32873 25.2227C9.3318 25.2595 9.33333 25.2965 9.33333 25.3334C9.33333 25.687 9.47381 26.0262 9.72386 26.2762C9.97391 26.5263 10.313 26.6667 10.6667 26.6667H21.3333C21.687 26.6667 22.0261 26.5263 22.2761 26.2762C22.5262 26.0262 22.6667 25.687 22.6667 25.3334C22.6667 25.2965 22.6682 25.2595 22.6713 25.2227L23.8843 10.6667H8.11573ZM18.6667 8.00008H13.3333L13.3333 5.33341L18.6667 5.33341V8.00008ZM13.3333 13.3334C14.0697 13.3334 14.6667 13.9304 14.6667 14.6667V22.6667C14.6667 23.4031 14.0697 24.0001 13.3333 24.0001C12.597 24.0001 12 23.4031 12 22.6667V14.6667C12 13.9304 12.597 13.3334 13.3333 13.3334ZM18.6667 13.3334C19.403 13.3334 20 13.9304 20 14.6667V22.6667C20 23.4031 19.403 24.0001 18.6667 24.0001C17.9303 24.0001 17.3333 23.4031 17.3333 22.6667V14.6667C17.3333 13.9304 17.9303 13.3334 18.6667 13.3334Z" fill="#949494"/>
</svg>
