<svg width="32" height="32" viewBox="0 0 32 32" fill="none" xmlns="http://www.w3.org/2000/svg">
<path fill-rule="evenodd" clip-rule="evenodd" d="M7.27921 7.27891C9.5099 5.0489 12.595 3.66675 16.0001 3.66675C22.8115 3.66675 28.3334 9.18865 28.3334 16.0001C28.3334 22.8115 22.8115 28.3334 16.0001 28.3334V27.0004L16.002 28.3334C16.0013 28.3334 16.0007 28.3334 16.0001 28.3334C14.3802 28.3354 12.7758 28.0173 11.2792 27.3974C9.78195 26.7773 8.42209 25.8673 7.27776 24.7198C6.75778 24.1984 6.75895 23.3542 7.28037 22.8342C7.80178 22.3142 8.646 22.3154 9.16598 22.8368C10.0622 23.7354 11.1271 24.4481 12.2996 24.9337C13.4722 25.4194 14.7291 25.6685 15.9982 25.6667L16.0001 25.6667C21.3388 25.6667 25.6668 21.3388 25.6668 16.0001C25.6668 10.6614 21.3388 6.33341 16.0001 6.33341C13.3309 6.33341 10.916 7.41399 9.16468 9.16467C9.16463 9.16472 9.16473 9.16462 9.16468 9.16467C8.68453 9.64482 7.9001 10.4964 7.21868 11.2478C6.88174 11.6193 6.57602 11.9596 6.3545 12.2071C6.24378 12.3308 6.15421 12.4312 6.09241 12.5005L5.99742 12.6073C5.50848 13.1579 4.66543 13.2082 4.11479 12.7193C3.56416 12.2304 3.51415 11.3876 4.00309 10.837L4.10154 10.7264C4.16448 10.6558 4.25536 10.5539 4.36753 10.4286C4.59177 10.1781 4.90152 9.83325 5.24337 9.45632C5.91954 8.71076 6.74614 7.81198 7.27921 7.27891Z" fill="#949494"/>
<path fill-rule="evenodd" clip-rule="evenodd" d="M5.00008 5.5C5.73646 5.5 6.33341 6.09695 6.33341 6.83333V10.3889H9.88897C10.6253 10.3889 11.2223 10.9858 11.2223 11.7222C11.2223 12.4586 10.6253 13.0556 9.88897 13.0556H5.00008C4.2637 13.0556 3.66675 12.4586 3.66675 11.7222V6.83333C3.66675 6.09695 4.2637 5.5 5.00008 5.5Z" fill="#949494"/>
</svg>
