<svg width="32" height="32" viewBox="0 0 32 32" fill="none" xmlns="http://www.w3.org/2000/svg">
<path d="M16.0001 5C14.674 5 13.4022 5.52678 12.4645 6.46447C11.5269 7.40215 11.0001 8.67392 11.0001 10C11.0001 11.3261 11.5269 12.5979 12.4645 13.5355C13.4022 14.4732 14.674 15 16.0001 15C17.3262 15 18.5979 14.4732 19.5356 13.5355C20.4733 12.5979 21.0001 11.3261 21.0001 10C21.0001 8.67392 20.4733 7.40215 19.5356 6.46447C18.5979 5.52678 17.3262 5 16.0001 5ZM10.6667 17.6667C9.34067 17.6667 8.0689 18.1935 7.13121 19.1311C6.19353 20.0688 5.66675 21.3406 5.66675 22.6667V24.2507C5.66675 25.256 6.39475 26.112 7.38675 26.2733C13.0907 27.2053 18.9094 27.2053 24.6134 26.2733C25.0932 26.1944 25.5294 25.9478 25.8443 25.5774C26.1593 25.207 26.3326 24.7369 26.3334 24.2507V22.6667C26.3334 21.3406 25.8066 20.0688 24.8689 19.1311C23.9313 18.1935 22.6595 17.6667 21.3334 17.6667H20.8801C20.6312 17.6676 20.3894 17.7058 20.1547 17.7813L19.0001 18.1587C17.0507 18.7951 14.9495 18.7951 13.0001 18.1587L11.8454 17.7813C11.6114 17.7063 11.3672 17.6676 11.1214 17.6667H10.6667Z" fill="#949494"/>
</svg>
