<svg width="32" height="32" viewBox="0 0 32 32" fill="none" xmlns="http://www.w3.org/2000/svg">
<path fill-rule="evenodd" clip-rule="evenodd" d="M10.3334 9.99992C10.3334 9.25576 10.48 8.51889 10.7648 7.83138C11.0495 7.14387 11.4669 6.51918 11.9931 5.99298C12.5193 5.46678 13.144 5.04938 13.8315 4.7646C14.5191 4.47982 15.2559 4.33325 16.0001 4.33325C16.7442 4.33325 17.4811 4.47982 18.1686 4.7646C18.8561 5.04938 19.4808 5.46678 20.007 5.99298C20.5332 6.51918 20.9506 7.14387 21.2354 7.83138C21.5202 8.51889 21.6667 9.25576 21.6667 9.99992C21.6667 11.5028 21.0697 12.9442 20.007 14.0069C18.9443 15.0696 17.503 15.6666 16.0001 15.6666C14.4972 15.6666 13.0558 15.0696 11.9931 14.0069C10.9304 12.9442 10.3334 11.5028 10.3334 9.99992ZM16.0001 6.33325C15.0276 6.33325 14.095 6.71956 13.4074 7.40719C12.7197 8.09483 12.3334 9.02746 12.3334 9.99992C12.3334 10.9724 12.7197 11.905 13.4074 12.5926C14.095 13.2803 15.0276 13.6666 16.0001 13.6666C16.9725 13.6666 17.9052 13.2803 18.5928 12.5926C19.2804 11.905 19.6667 10.9724 19.6667 9.99992C19.6667 9.02746 19.2804 8.09483 18.5928 7.40719C17.9052 6.71956 16.9725 6.33325 16.0001 6.33325ZM10.6667 19.6666C9.8711 19.6666 9.10804 19.9827 8.54543 20.5453C7.98282 21.1079 7.66675 21.8709 7.66675 22.6666V24.2506C7.66675 24.2746 7.68408 24.2959 7.70808 24.2999C13.2001 25.1959 18.8014 25.1959 24.2921 24.2999C24.3034 24.2973 24.3136 24.2911 24.321 24.2822C24.3285 24.2733 24.3328 24.2622 24.3334 24.2506V22.6666C24.3334 21.8709 24.0173 21.1079 23.4547 20.5453C22.8921 19.9827 22.1291 19.6666 21.3334 19.6666H20.8801C20.8444 19.6672 20.809 19.6726 20.7747 19.6826L19.6214 20.0599C17.2683 20.8283 14.7318 20.8283 12.3787 20.0599L11.2241 19.6826C11.1907 19.6728 11.1562 19.6674 11.1214 19.6666H10.6667ZM5.66675 22.6666C5.66675 21.3405 6.19353 20.0687 7.13121 19.1311C8.0689 18.1934 9.34067 17.6666 10.6667 17.6666H11.1201C11.369 17.6675 11.6107 17.7057 11.8454 17.7813L13.0001 18.1586C14.9495 18.795 17.0507 18.795 19.0001 18.1586L20.1547 17.7813C20.3881 17.7053 20.6334 17.6666 20.8787 17.6666H21.3334C22.6595 17.6666 23.9313 18.1934 24.869 19.1311C25.8066 20.0687 26.3334 21.3405 26.3334 22.6666V24.2506C26.3334 25.2559 25.6054 26.1119 24.6134 26.2733C18.9089 27.2044 13.0912 27.2044 7.38675 26.2733C6.90699 26.1943 6.47081 25.9477 6.15584 25.5773C5.84088 25.2069 5.66756 24.7368 5.66675 24.2506V22.6666Z" fill="#949494"/>
</svg>
