<svg width="32" height="32" viewBox="0 0 32 32" fill="none" xmlns="http://www.w3.org/2000/svg">
<path d="M5.33334 4C4.27248 4 3.25506 4.42143 2.50492 5.17157C1.75477 5.92172 1.33334 6.93913 1.33334 8V25.3333C1.33334 26.3942 1.75477 27.4116 2.50492 28.1618C3.25506 28.9119 4.27248 29.3333 5.33334 29.3333H22.6667C23.7275 29.3333 24.745 28.9119 25.4951 28.1618C26.2453 27.4116 26.6667 26.3942 26.6667 25.3333V22.9733C27.5067 22.2133 28 21.1333 28 20V13.3333C28 12.2 27.5067 11.12 26.6667 10.36V8C26.6667 6.93913 26.2453 5.92172 25.4951 5.17157C24.745 4.42143 23.7275 4 22.6667 4H5.33334ZM5.33334 5.33333H22.6667C23.3739 5.33333 24.0522 5.61428 24.5523 6.11438C25.0524 6.61448 25.3333 7.29276 25.3333 8V9.56C24.9067 9.41333 24.4533 9.33333 24 9.33333H16C14.9391 9.33333 13.9217 9.75476 13.1716 10.5049C12.4214 11.2551 12 12.2725 12 13.3333V20C12 21.0609 12.4214 22.0783 13.1716 22.8284C13.9217 23.5786 14.9391 24 16 24H24C24.4533 24 24.9067 23.92 25.3333 23.7733V25.3333C25.3333 26.0406 25.0524 26.7189 24.5523 27.219C24.0522 27.719 23.3739 28 22.6667 28H5.33334C4.6261 28 3.94782 27.719 3.44773 27.219C2.94763 26.7189 2.66668 26.0406 2.66668 25.3333V8C2.66668 7.29276 2.94763 6.61448 3.44773 6.11438C3.94782 5.61428 4.6261 5.33333 5.33334 5.33333ZM16 10.6667H24C24.7073 10.6667 25.3855 10.9476 25.8856 11.4477C26.3857 11.9478 26.6667 12.6261 26.6667 13.3333V20C26.6667 20.7072 26.3857 21.3855 25.8856 21.8856C25.3855 22.3857 24.7073 22.6667 24 22.6667H16C15.2928 22.6667 14.6145 22.3857 14.1144 21.8856C13.6143 21.3855 13.3333 20.7072 13.3333 20V13.3333C13.3333 12.6261 13.6143 11.9478 14.1144 11.4477C14.6145 10.9476 15.2928 10.6667 16 10.6667ZM19.3333 13.3333C18.4493 13.3333 17.6014 13.6845 16.9763 14.3096C16.3512 14.9348 16 15.7826 16 16.6667C16 17.5507 16.3512 18.3986 16.9763 19.0237C17.6014 19.6488 18.4493 20 19.3333 20C20.2174 20 21.0652 19.6488 21.6904 19.0237C22.3155 18.3986 22.6667 17.5507 22.6667 16.6667C22.6667 15.7826 22.3155 14.9348 21.6904 14.3096C21.0652 13.6845 20.2174 13.3333 19.3333 13.3333ZM19.3333 14.6667C19.8638 14.6667 20.3725 14.8774 20.7476 15.2525C21.1226 15.6275 21.3333 16.1362 21.3333 16.6667C21.3333 17.1971 21.1226 17.7058 20.7476 18.0809C20.3725 18.456 19.8638 18.6667 19.3333 18.6667C18.8029 18.6667 18.2942 18.456 17.9191 18.0809C17.5441 17.7058 17.3333 17.1971 17.3333 16.6667C17.3333 16.1362 17.5441 15.6275 17.9191 15.2525C18.2942 14.8774 18.8029 14.6667 19.3333 14.6667Z" fill="black"/>
</svg>
